<?xml version="1.0" encoding="UTF-8" standalone="no"?>
<!-- Created with Inkscape (http://www.inkscape.org/) -->

<svg
   width="408"
   height="408"
   viewBox="0 0 107.95 107.95"
   version="1.1"
   id="svg5"
   inkscape:version="1.1.2 (b8e25be833, 2022-02-05)"
   sodipodi:docname="wd.svg"
   xmlns:inkscape="http://www.inkscape.org/namespaces/inkscape"
   xmlns:sodipodi="http://sodipodi.sourceforge.net/DTD/sodipodi-0.dtd"
   xmlns="http://www.w3.org/2000/svg"
   xmlns:svg="http://www.w3.org/2000/svg">
  <sodipodi:namedview
     id="namedview7"
     pagecolor="#ffffff"
     bordercolor="#666666"
     borderopacity="1.0"
     inkscape:pageshadow="2"
     inkscape:pageopacity="0.0"
     inkscape:pagecheckerboard="0"
     inkscape:document-units="mm"
     showgrid="false"
     units="px"
     inkscape:zoom="0.74029882"
     inkscape:cx="-6.0786265"
     inkscape:cy="305.28213"
     inkscape:window-width="1920"
     inkscape:window-height="1017"
     inkscape:window-x="1912"
     inkscape:window-y="-8"
     inkscape:window-maximized="1"
     inkscape:current-layer="layer1" />
  <defs
     id="defs2" />
  <g
     inkscape:label="Capa 1"
     inkscape:groupmode="layer"
     id="layer1">
    <path
       style="fill:#ffffff;stroke-width:0.20496"
       d="M 50.973884,106.77738 C 27.48223,104.5076 8.3624638,87.032276 4.1140741,63.947855 3.1629432,58.779722 3.035363,52.202749 3.7880691,47.141107 4.4128312,42.939977 6.1465036,36.58879 7.2009341,34.638533 7.4562723,34.166264 7.4785882,34.23984 7.4861884,35.577059 l 0.00809,1.450924 1.0247966,0.479952 1.0248061,0.479953 v 2.039389 2.0394 l 1.0385599,1.799503 c 1.02761,1.780553 1.323877,2.035599 2.372308,2.042285 0.302396,0.0019 0.480356,-0.162193 0.571965,-0.527331 0.104705,-0.417129 -0.08328,-0.867391 -0.881492,-2.111733 -0.719603,-1.121847 -1.053008,-1.876314 -1.146831,-2.595498 -0.07277,-0.557654 -0.175131,-1.221436 -0.227443,-1.475076 -0.0815,-0.394973 -0.0089,-0.461193 0.505097,-0.461193 0.586356,0 0.605842,0.03476 0.841299,1.485958 0.214749,1.323715 0.398774,1.717769 1.685596,3.608962 l 1.444561,2.123002 -0.345491,0.724455 -0.345491,0.724455 0.92854,1.396398 c 0.768845,1.156217 1.061498,1.431074 1.70155,1.598031 3.703593,0.966072 3.744934,0.971967 3.744934,0.533881 0,-0.338053 0.237227,-0.372739 1.213568,-0.177476 0.573339,0.114652 0.642792,0.201246 0.589266,0.734724 -0.05983,0.598161 -0.04124,0.609885 1.733826,1.072163 1.66341,0.433218 1.858051,0.540511 2.664485,1.468372 2.28924,2.633898 2.187921,2.559665 3.639719,2.66636 2.666852,0.195992 2.623434,0.176101 2.76172,1.262833 0.06792,0.531537 0.166075,1.249217 0.218712,1.594854 0.08886,0.583688 -0.0066,0.698339 -1.341263,1.610247 l -1.436941,0.981815 v 1.42464 c 0,0.78356 -0.101623,1.828328 -0.225907,2.321718 l -0.225907,0.89708 1.961528,2.462615 c 1.07884,1.354434 2.019146,2.720945 2.089577,3.036681 0.07035,0.315737 0.168743,0.725831 0.218469,0.911263 0.05336,0.198174 0.404353,0.395701 0.852037,0.479143 0.428689,0.08005 1.455944,0.641256 2.350057,1.284202 l 1.588441,1.142288 v 4.486845 4.486839 l 0.58579,0.204238 0.585792,0.204238 -0.376864,2.060486 -0.376862,2.060495 0.925945,1.203331 0.925945,1.203341 -0.186127,2.003977 -0.186126,2.003976 1.214214,2.189433 c 1.016502,1.832903 1.464564,2.408633 2.751565,3.535573 l 1.53735,1.34613 h 1.614808 c 1.481811,0 1.626548,-0.0372 1.757363,-0.44916 0.147235,-0.46394 0.153461,-0.45642 -1.543496,-1.87505 l -0.696236,-0.58207 0.273044,-0.955154 c 0.150147,-0.525311 0.315495,-1.254925 0.367484,-1.621293 0.09242,-0.651929 0.07762,-0.66624 -0.696641,-0.672546 -0.607784,-0.005 -0.879446,-0.127751 -1.172689,-0.530163 -0.380177,-0.521754 -0.379289,-0.5262 0.233588,-1.172082 0.338376,-0.356568 0.673356,-0.842001 0.744347,-1.078695 0.106646,-0.355436 0.01213,-0.463701 -0.540998,-0.62169 -0.83842,-0.23941 -1.041922,-0.980214 -0.322205,-1.172971 0.259543,-0.06954 0.667454,-0.127669 0.906468,-0.129205 0.239005,-0.0017 1.192271,-0.358993 2.118378,-0.794233 1.526945,-0.717745 1.741759,-0.892908 2.305565,-1.880092 0.341933,-0.598726 1.318355,-1.963655 2.169784,-3.03314 l 1.548047,-1.944516 -0.353576,-1.701055 -0.353576,-1.701057 0.472027,-0.826526 0.472029,-0.826526 1.554806,-0.0017 c 1.472683,-0.0015 1.604937,-0.04043 2.503972,-0.741031 0.522077,-0.406698 0.99122,-0.890944 1.042603,-1.076043 0.05174,-0.185076 0.206825,-1.607063 0.34549,-3.159904 l 0.252024,-2.823348 1.110065,-1.428649 c 1.026625,-1.32121 1.491895,-2.282163 1.491895,-3.081264 0,-0.212001 -0.33393,-0.40686 -0.981622,-0.572855 -0.869645,-0.222915 -1.056534,-0.376781 -1.63824,-1.349362 l -0.656619,-1.097768 -2.409728,-0.09081 c -2.096111,-0.07923 -2.643132,-0.178689 -4.203128,-0.766339 l -1.793408,-0.675539 -8.17e-4,-1.253638 c -7.44e-4,-1.05372 -0.10891,-1.433413 -0.678206,-2.380921 l -0.677317,-1.127289 -1.668303,-0.05903 -1.668302,-0.05902 -0.949668,-1.499138 c -1.163099,-1.836073 -2.760702,-2.790576 -2.760702,-1.649413 0,0.169147 -0.197122,0.29609 -0.461193,0.29714 -0.25364,0.001 -0.936278,0.05902 -1.516983,0.12864 -1.053799,0.126617 -1.056871,0.125323 -1.597594,-0.691791 -0.510757,-0.771836 -0.635677,-0.83749 -2.183401,-1.147923 l -1.641635,-0.329238 -0.655003,0.76084 c -0.360286,0.418502 -0.977836,1.109047 -1.372381,1.534615 l -0.71734,0.773779 -2.049604,-0.361581 -2.049602,-0.361582 -0.04932,-0.717341 c -0.02749,-0.394569 -0.103894,-1.467369 -0.170118,-2.384048 l -0.120394,-1.66665 -1.059661,-0.13818 c -0.582799,-0.07601 -1.268105,-0.189362 -1.522861,-0.251943 l -0.463216,-0.113762 0.617002,-1.078435 c 0.473886,-0.828274 0.587245,-1.227129 0.488844,-1.719435 -0.07034,-0.352525 -0.212485,-0.641014 -0.315413,-0.641014 -0.102923,0 -1.024482,0.56299 -2.047832,1.251084 l -1.86063,1.251086 -1.286886,-0.137777 -1.286888,-0.137776 -0.415671,-1.000202 c -0.376541,-0.906086 -0.390367,-1.096093 -0.146833,-2.019241 0.147883,-0.560482 0.578837,-1.588691 0.957802,-2.284946 0.637699,-1.171669 0.806927,-1.325479 2.272881,-2.06596 L 25.931827,40.5832 h 3.067723 3.067721 l 0.06225,0.96026 c 0.06146,0.9483 0.07601,0.966291 1.169639,1.444366 l 1.107165,0.484076 -0.124597,-1.615503 -0.124596,-1.615512 0.86206,-0.82697 c 0.474131,-0.454806 1.568237,-1.297148 2.431351,-1.871788 1.40402,-0.934774 1.583387,-1.128195 1.703044,-1.836431 0.187662,-1.110761 3.108368,-3.979461 5.180779,-5.088515 0.81646,-0.436938 1.457878,-0.876212 1.425383,-0.976165 -0.09848,-0.302961 2.136489,-2.282827 2.495247,-2.210421 0.183621,0.03719 0.468713,0.198335 0.633737,0.358428 0.26019,0.252589 0.359317,0.216609 0.748793,-0.271833 l 0.448904,-0.562909 -0.851268,-0.205452 c -0.667938,-0.161222 -0.866152,-0.310804 -0.92043,-0.694701 -0.08539,-0.603739 0.254611,-0.835807 1.230596,-0.839882 0.57253,-0.0024 0.842672,0.122008 1.134193,0.522238 0.356326,0.48917 0.458203,0.515366 1.478853,0.379935 0.833141,-0.110528 1.120676,-0.239167 1.198329,-0.536065 0.06792,-0.258572 0.249112,-0.369747 0.53663,-0.328674 0.603902,0.08619 0.679339,0.861327 0.121767,1.251853 -0.280484,0.196478 -0.413894,0.47502 -0.370314,0.77305 0.0566,0.384463 0.33692,0.548517 1.605332,0.938549 2.000969,0.615222 2.049603,0.610614 2.049603,-0.194292 0,-0.61409 -0.101154,-0.724295 -1.127281,-1.227532 -0.619991,-0.304093 -1.12728,-0.684514 -1.12728,-0.845463 0,-0.162193 0.388182,-0.421494 0.871077,-0.581909 0.838162,-0.278381 0.873398,-0.324469 0.932413,-1.219001 0.06064,-0.91439 0.04447,-0.940628 -0.973559,-1.593787 l -1.034893,-0.664057 v -1.519295 -1.518414 l -1.429604,0.719928 c -0.786309,0.395944 -1.627454,0.719928 -1.869283,0.719928 -0.410256,0 -0.433784,-0.08167 -0.351393,-1.220344 l 0.08829,-1.220343 -1.839849,-0.423597 -1.839859,-0.423596 -0.785825,0.544554 -0.785823,0.544555 v 1.804946 1.804945 l -1.412964,0.455048 c -1.393113,0.448662 -1.421008,0.471867 -1.984814,1.6515 -0.497093,1.03999 -0.647321,1.196427 -1.149031,1.196427 -0.576977,0 -0.577219,-5.16e-4 -0.577219,-1.409107 v -1.409097 l -0.64053,-0.128073 c -0.352282,-0.07035 -0.826388,-0.128073 -1.053588,-0.128073 -0.227201,0 -0.815385,-0.200924 -1.307085,-0.446479 -0.874942,-0.436937 -1.298134,-1.16584 -1.301845,-2.242182 -0.0014,-0.4202 4.213542,-2.886042 5.675276,-3.320134 1.13953,-0.338375 1.292232,-0.256065 1.292232,0.696562 0,0.312664 0.146832,0.393195 0.71734,0.393195 0.580698,0 0.717341,-0.07843 0.717341,-0.409932 0,-0.31703 0.136644,-0.409932 0.602769,-0.409932 0.652172,0 1.002442,-0.300617 0.551751,-0.473565 -0.152815,-0.05903 -0.328107,-0.298837 -0.389557,-0.533881 -0.0971,-0.371283 -0.02021,-0.427235 0.585872,-0.427235 0.518681,0 0.915086,-0.197123 1.545693,-0.768602 0.766744,-0.694863 1.010455,-0.788978 2.539411,-0.980433 l 1.691298,-0.211838 0.763024,0.640609 0.763024,0.640609 -1.867148,0.964344 c -1.026934,0.530404 -1.8671,1.02918 -1.867036,1.108416 5.7e-5,0.07924 0.991559,0.367565 2.203325,0.640772 1.211765,0.273206 2.302508,0.530567 2.423871,0.571964 0.121362,0.04124 0.343631,-0.297383 0.493939,-0.752835 l 0.273288,-0.828136 h 1.097486 c 1.01824,0 1.126811,-0.0477 1.503633,-0.666159 0.538976,-0.883974 0.525069,-0.932971 -0.309672,-1.089562 -0.698825,-0.131064 -0.717341,-0.159445 -0.717341,-1.096362 V 11.968402 L 54.43381,10.881734 51.978018,9.795059 50.283365,9.9435883 c -1.14658,0.1005037 -2.009515,0.3074897 -2.668221,0.6399627 l -0.973559,0.491434 V 12.327492 13.58 l -0.871073,-0.139101 c -0.995091,-0.158961 -1.078,-0.223239 -1.254157,-0.972186 -0.109315,-0.464589 0.0097,-0.668262 0.793182,-1.357902 l 0.921733,-0.811349 -0.640287,-0.128074 c -0.352121,-0.07035 -1.228276,-0.128073 -1.946918,-0.128073 -1.046329,0 -1.390792,0.08416 -1.729144,0.422545 -0.527089,0.52709 -0.440737,1.093314 0.180225,1.181719 0.39465,0.05579 0.460627,0.172382 0.407829,0.717341 -0.06064,0.624115 -0.103895,0.652899 -1.076252,0.714429 -0.758254,0.0477 -1.1297,0.189766 -1.476177,0.563637 -0.406293,0.438392 -0.639881,0.499518 -1.907476,0.499518 h -1.444504 v -0.598079 c 0,-0.328998 -0.05579,-0.744023 -0.124434,-0.922324 -0.10536,-0.274581 0.07357,-0.324226 1.170763,-0.324226 1.245846,0 1.32864,-0.03314 2.174013,-0.862514 0.483349,-0.474373 0.878839,-0.932301 0.878839,-1.017593 0,-0.0853 -0.194697,-0.259301 -0.432652,-0.386646 -0.372091,-0.1991446 -0.537115,-0.1337334 -1.178525,0.467257 -0.6964,0.652495 -0.820583,0.693165 -1.873139,0.614494 -1.056265,-0.07923 -1.169647,-0.141091 -1.799891,-0.986845 L 34.740911,9.2234578 h -1.556875 -1.556877 l -1.453381,1.0760362 -1.453376,1.076043 1.387188,0.06064 c 1.481083,0.06469 1.860209,0.352768 1.411363,1.071499 -0.324713,0.519974 -0.130986,0.609804 1.314773,0.609804 1.066478,0 1.327758,0.06872 1.503043,0.396429 0.116673,0.218064 0.212162,0.448661 0.212162,0.512375 0,0.06388 -0.777577,0.115945 -1.727907,0.115945 -1.631263,0 -1.731571,-0.02587 -1.793408,-0.457233 -0.05417,-0.376862 -0.279999,-0.504693 -1.286175,-0.727285 -0.671415,-0.148529 -1.353812,-0.380905 -1.516531,-0.516336 -0.162678,-0.135431 -0.945486,-0.29245 -1.73951,-0.348805 l -1.443663,-0.10252 1.935396,-1.257618 c 2.576393,-1.6741558 4.505257,-2.7696123 6.465619,-3.6720442 18.342175,-8.4435464 39.154984,-6.0042737 54.805771,6.4232612 1.070918,0.850361 1.976988,1.568405 2.013477,1.595654 0.03638,0.02749 -0.07034,0.313472 -0.236984,0.636082 -0.214344,0.41446 -0.617728,0.699552 -1.374985,0.971893 -0.589428,0.21192 -1.370531,0.647725 -1.735791,0.968467 -0.576249,0.505986 -0.646189,0.671334 -0.528707,1.250478 0.109638,0.540269 0.24596,0.680228 0.716127,0.734563 0.476151,0.05498 0.656214,0.245959 1.000057,1.059734 l 0.41931,0.992529 1.017667,-0.40112 c 0.559675,-0.220652 1.048827,-0.369989 1.086909,-0.331826 0.03801,0.03801 0.130985,0.594765 0.206503,1.237073 l 0.13729,1.167829 -1.234671,-0.129044 c -0.679096,-0.07115 -1.660645,-0.06549 -2.181274,0.01293 -0.871886,0.130742 -1.012443,0.238925 -1.780827,1.370409 -0.900289,1.325737 -1.210407,1.523402 -2.694578,1.71751 -0.532832,0.06953 -1.006501,0.190574 -1.052604,0.268598 -0.04609,0.07843 -0.147559,0.614332 -0.225341,1.191771 -0.137129,1.016913 -0.124192,1.054252 0.410094,1.188365 0.491514,0.123384 0.537682,0.208442 0.423434,0.779759 -0.07034,0.352769 -0.162355,0.675458 -0.204076,0.717099 -0.04204,0.04204 -0.677884,-0.03477 -1.41387,-0.170765 -1.058675,-0.195102 -1.593398,-0.192353 -2.560861,0.01294 -1.167861,0.247821 -1.233466,0.295119 -1.460262,1.052078 -0.179012,0.597434 -0.179821,1.123368 -0.0036,2.135706 0.314606,1.806683 0.644168,1.98027 3.609245,1.901308 l 2.183482,-0.05822 0.199953,-0.614897 c 0.109962,-0.338215 0.787683,-1.371275 1.505921,-2.295765 l 1.305921,-1.680874 0.970276,0.111983 c 0.887078,0.102366 1.021903,0.05741 1.572271,-0.522481 0.715967,-0.754533 0.885033,-0.785501 0.972202,-0.177881 0.04527,0.314201 0.714915,0.90532 2.148334,1.895883 1.934013,1.336533 2.060033,1.46484 1.763734,1.795737 -0.244018,0.27256 -0.504935,0.326652 -1.109282,0.230031 -0.889883,-0.142304 -0.988744,0.04527 -0.372253,0.707233 0.464346,0.498467 1.317959,0.582718 2.134451,0.210707 0.4202,-0.191463 0.522077,-0.383332 0.522077,-0.983812 0,-0.410256 0.102682,-0.848592 0.228091,-0.974046 0.343308,-0.343227 0.0984,-0.583445 -1.461978,-1.434179 -1.266851,-0.690658 -1.459122,-0.877327 -1.735104,-1.684344 -0.170684,-0.499195 -0.3104,-0.937279 -0.3104,-0.973559 0,-0.03638 0.484238,-0.06388 1.076043,-0.06146 1.007439,0.004 1.164247,0.07843 2.459518,1.1707 1.373095,1.157649 1.383484,1.174215 1.383484,2.206734 0,0.973812 0.06388,1.103347 1.000559,2.025849 0.550295,0.542048 1.047088,0.907494 1.103961,0.812133 0.0566,-0.09533 0.223482,-0.715642 0.370233,-1.378341 0.217418,-0.981863 0.383008,-1.275834 0.894398,-1.587682 0.34516,-0.210463 0.685323,-0.383007 0.755903,-0.383492 0.0704,-4.12e-4 0.16947,0.495637 0.21984,1.102321 0.0703,0.852739 0.24322,1.294641 0.75996,1.947119 0.66599,0.840919 0.67367,0.844039 2.0666,0.844039 h 1.39811 l 0.61643,1.703523 c 0.98101,2.711169 1.109,2.48886 -1.47184,2.556568 l -2.22645,0.05822 -1.05291,-0.788735 c -1.515143,-1.134983 -1.454043,-1.114794 -2.903362,-0.959586 l -1.326433,0.142061 v 0.795931 c 0,0.680228 -0.06468,0.795932 -0.445022,0.795932 -0.244745,0 -0.590642,-0.131793 -0.768683,-0.292936 -0.178041,-0.161144 -1.384301,-0.558542 -2.680623,-0.883182 l -2.356954,-0.590237 -0.05983,-1.473871 -0.05983,-1.473863 -0.964585,0.0072 c -2.658963,0.02022 -4.897522,0.363359 -5.994053,0.919031 -1.010656,0.512132 -1.239038,0.54973 -2.626379,0.432491 -1.472869,-0.124515 -1.562632,-0.105117 -2.926897,0.631716 l -1.407433,0.760193 v 1.477743 1.477735 l -2.869443,2.075064 c -1.578197,1.141284 -2.869442,2.197769 -2.869442,2.347754 0,0.149985 0.05741,0.560887 0.128074,0.913194 0.10786,0.539138 0.221379,0.640529 0.71734,0.640529 0.625327,0 0.676105,0.129528 0.464751,1.185989 -0.07439,0.370313 -0.281535,0.66341 -0.512374,0.723808 -0.352445,0.09217 -0.387212,0.314201 -0.380259,2.426433 l 0.0077,2.324993 2.489192,2.818205 2.489193,2.818206 h 1.089925 c 0.599454,0 1.089934,-0.09226 1.089934,-0.204967 0,-0.122736 0.807897,-0.204965 2.013873,-0.204965 1.883131,0 2.045131,-0.03314 2.495257,-0.512375 0.410174,-0.436695 0.663976,-0.512374 1.716886,-0.512374 1.094745,0 1.307684,0.07035 1.868909,0.613928 0.556522,0.53946 0.827368,0.630341 2.23273,0.749116 l 1.599341,0.135188 -0.11829,1.044308 c -0.06469,0.57439 -0.168258,1.597699 -0.229383,2.274063 l -0.111094,1.229764 1.826218,3.175888 1.826218,3.175889 -0.931297,1.845639 c -1.185536,2.349484 -1.215703,3.30963 -0.138747,4.416285 l 0.706506,0.725991 v 2.061635 2.061642 l 1.024798,1.353729 1.024806,1.35373 v 1.751242 1.751234 h 0.819839 c 0.450924,0 0.819839,0.0853 0.819839,0.189603 0,0.104304 -1.220101,1.453002 -2.711323,2.997176 -4.606139,4.769676 -8.942223,7.962009 -14.607823,10.754617 -5.332413,2.62838 -9.872331,4.06709 -15.576983,4.9364 -3.081823,0.46961 -9.43246,0.66536 -12.372167,0.3813 z M 48.578701,29.979621 c 0.162112,-0.422546 -0.513507,-0.915805 -0.860292,-0.627996 -0.141252,0.117238 -0.256793,0.419634 -0.256793,0.671981 0,0.375568 0.09055,0.441546 0.498629,0.363521 0.274258,-0.05256 0.55256,-0.235771 0.618456,-0.407506 z m 2.877018,-0.419877 c 0.111255,-0.250326 0.364897,-0.45513 0.563636,-0.45513 0.19874,0 0.361339,-0.03881 0.361339,-0.0857 0,-0.0469 0.05579,-0.231567 0.124434,-0.409932 0.0975,-0.254045 -0.01779,-0.324227 -0.531617,-0.324227 -0.48359,0 -0.68419,0.1077 -0.763185,0.409932 -0.084,0.321155 -0.279595,0.409932 -0.903136,0.409932 -0.836932,0 -1.054544,0.355356 -0.549002,0.896506 0.365382,0.391094 1.453246,0.108265 1.697571,-0.441384 z m 32.93879,-4.490225 c 0.704889,-0.675298 0.715562,-0.84062 0.07035,-1.085957 -0.76933,-0.29245 -1.906596,-1.997112 -2.171977,-3.255465 l -0.232055,-1.100404 -0.844299,0.113276 c -0.91629,0.122899 -1.371089,0.559189 -1.371089,1.315356 0,0.357053 0.267629,0.648048 1.034274,1.124637 0.775798,0.482296 1.019097,0.749035 0.973559,1.067569 -0.04204,0.291642 -0.237226,0.444941 -0.624357,0.489492 -0.467985,0.05417 -0.563636,0.164054 -0.563636,0.649343 0,0.321476 -0.05579,0.730357 -0.124435,0.908706 -0.107294,0.279595 0.1098,0.324226 1.577228,0.324226 1.56741,0 1.746979,-0.04366 2.276496,-0.550779 z m -5.057048,-0.832737 c 0.871239,-0.604791 1.108879,-0.887191 1.114999,-1.325034 0.0097,-0.716775 -0.59905,-1.052781 -1.601468,-0.883431 -0.608025,0.102682 -0.869564,0.303365 -1.3169,1.010478 -0.307004,0.485287 -0.558137,1.126253 -0.558137,1.424437 0,0.828247 0.977157,0.734562 2.361546,-0.226474 z"
       id="path375" />
  </g>
</svg>
