<?xml version="1.0" encoding="UTF-8" standalone="no"?>
<!-- Created with Inkscape (http://www.inkscape.org/) -->

<svg
   width="120mm"
   height="200mm"
   viewBox="0 0 120 200"
   version="1.1"
   id="svg5"
   inkscape:version="1.1.2 (b8e25be833, 2022-02-05)"
   sodipodi:docname="logo_eclac.svg"
   xmlns:inkscape="http://www.inkscape.org/namespaces/inkscape"
   xmlns:sodipodi="http://sodipodi.sourceforge.net/DTD/sodipodi-0.dtd"
   xmlns:xlink="http://www.w3.org/1999/xlink"
   xmlns="http://www.w3.org/2000/svg"
   xmlns:svg="http://www.w3.org/2000/svg">
  <sodipodi:namedview
     id="namedview7"
     pagecolor="#ffffff"
     bordercolor="#666666"
     borderopacity="1.0"
     inkscape:pageshadow="2"
     inkscape:pageopacity="0.0"
     inkscape:pagecheckerboard="0"
     inkscape:document-units="mm"
     showgrid="false"
     inkscape:zoom="0.56915012"
     inkscape:cx="280.24241"
     inkscape:cy="614.95199"
     inkscape:window-width="1920"
     inkscape:window-height="1017"
     inkscape:window-x="1912"
     inkscape:window-y="-8"
     inkscape:window-maximized="1"
     inkscape:current-layer="layer1"
     width="30mm" />
  <defs
     id="defs2">
    <color-profile
       name="sRGB-IEC61966-2.1"
       xlink:href="../../../../Windows/system32/spool/drivers/color/sRGB%20Color%20Space%20Profile.icm"
       id="color-profile1026" />
    <color-profile
       name="Agfa-:-Swop-Standard"
       xlink:href="../../../../Windows/system32/spool/drivers/color/RSWOP.icm"
       id="color-profile1028" />
  </defs>
  <g
     inkscape:label="Capa 1"
     inkscape:groupmode="layer"
     id="layer1">
    <path
       d="m 18.035412,94.415673 c 0,0.08629 -0.02697,0.151051 -0.264295,0.167297 v 0.113258 h 1.806879 V 94.58297 c -0.237324,-0.0163 -0.264282,-0.08101 -0.264282,-0.167297 v -2.984229 c 2.502663,2.806087 2.745406,2.924894 2.745406,3.048983 0,0.06476 -0.04857,0.102553 -0.221178,0.102553 v 0.113258 h 1.80153 V 94.58298 c -0.237338,-0.0163 -0.264295,-0.08101 -0.264295,-0.167297 v -4.430349 c 0,-0.08629 0.02695,-0.151051 0.264295,-0.172723 V 89.69937 h -1.736803 v 0.113241 c 0.124048,0.01115 0.199527,0.05934 0.199527,0.172723 v 2.536233 c -0.663378,-0.733968 -2.308456,-2.476899 -2.308456,-2.584868 0,-0.05934 0.04855,-0.113258 0.264295,-0.124083 v -0.113241 h -2.286918 v 0.113241 c 0.237324,0.0163 0.264295,0.08643 0.264295,0.172723 z"
       id="path132"
       inkscape:connector-curvature="0"
       style="clip-rule:evenodd;fill:#ffffff;fill-rule:evenodd;stroke-width:1.38956" />
    <path
       d="m 26.886467,93.174514 0.776628,-1.662059 0.798305,1.662059 z m 3.62996,1.527131 V 94.58825 c -0.07559,0 -0.161875,-0.02695 -0.188841,-0.09171 -0.415341,-0.982145 -1.747517,-3.647886 -1.747517,-3.761135 0,-0.06476 0.02695,-0.08643 0.124083,-0.09713 V 90.52488 h -1.984854 v 0.113395 c 0.097,0.01115 0.123945,0.03237 0.123945,0.09713 0,0.129504 -0.879177,1.980407 -1.639686,3.761135 -0.02695,0.06476 -0.113258,0.09171 -0.188703,0.09171 v 0.113395 h 1.423887 V 94.58825 c -0.03779,0 -0.124083,0 -0.124083,-0.08087 0,-0.102554 0.221219,-0.474954 0.275134,-0.647538 h 2.205934 c 0.06476,0.172584 0.275134,0.544988 0.275134,0.647538 0,0.08087 -0.08629,0.08087 -0.124083,0.08087 v 0.113395 z"
       id="path134"
       inkscape:connector-curvature="0"
       style="clip-rule:evenodd;fill:#ffffff;fill-rule:evenodd;stroke-width:1.38956" />
    <path
       d="m 36.303825,90.703034 c -0.02711,0.03779 -0.07559,0.08629 -0.140346,0.08629 -0.102416,0 -0.361286,-0.08629 -0.684916,-0.161876 -0.32363,-0.07559 -0.728132,-0.161893 -1.148892,-0.161893 -1.386091,0 -2.772321,0.588203 -2.772321,2.142292 0,1.559509 1.38623,2.147712 2.772321,2.147712 1.208226,0 2.033489,-0.571945 2.125061,-0.571945 0.05934,0 0.107975,0.0485 0.151051,0.107837 l 0.113258,-0.07003 -0.900716,-1.300494 -0.102416,0.06476 c 0.01064,0.05934 0.01064,0.102416 0.01064,0.172584 0,0.134925 -0.63642,0.588202 -1.396929,0.588202 -0.712013,0 -1.537137,-0.329188 -1.537137,-1.138609 0,-0.804002 0.825124,-1.138609 1.537137,-1.138609 0.625721,0 1.310637,0.275272 1.310637,0.426318 0,0.06476 -0.02695,0.113395 -0.03766,0.161893 l 0.129367,0.06476 0.685055,-1.386786 z"
       id="path136"
       inkscape:connector-curvature="0"
       style="clip-rule:evenodd;fill:#ffffff;fill-rule:evenodd;stroke-width:1.38956" />
    <path
       d="m 37.878758,90.519611 v 0.113258 c 0.188703,0.01115 0.301953,0.03779 0.301953,0.172723 v 3.610089 c 0,0.129504 -0.113259,0.156472 -0.301953,0.167297 v 0.113258 h 1.882304 V 94.582978 C 39.57236,94.571827 39.45911,94.545185 39.45911,94.415681 v -3.610089 c 0,-0.134925 0.113258,-0.161893 0.301952,-0.172723 v -0.113258 z"
       id="path138"
       inkscape:connector-curvature="0"
       style="clip-rule:evenodd;fill:#ffffff;fill-rule:evenodd;stroke-width:1.38956" />
    <path
       d="m 43.525949,90.465557 c -1.186688,0 -2.534983,0.647537 -2.534983,2.142292 0,1.505593 1.348295,2.147711 2.534983,2.147711 1.186549,0 2.534983,-0.647537 2.534983,-2.147711 0,-1.494755 -1.348434,-2.142292 -2.534983,-2.142292 z m 0,1.009102 c 0.722713,0 1.299799,0.437157 1.299799,1.138609 0,0.706872 -0.582506,1.13861 -1.299799,1.13861 -0.722712,0 -1.299938,-0.437157 -1.299938,-1.13861 -0.0055,-0.701452 0.577226,-1.138609 1.299938,-1.138609 z"
       id="path140"
       inkscape:connector-curvature="0"
       style="clip-rule:evenodd;fill:#ffffff;fill-rule:evenodd;stroke-width:1.38956" />
    <path
       d="m 52.161121,90.810864 c 0,-0.134788 0.113258,-0.161876 0.269715,-0.172584 v -0.113395 h -1.672064 v 0.113395 c 0.151051,0.01115 0.264296,0.03779 0.264296,0.172584 v 1.872577 c -0.798166,-0.863475 -1.720559,-1.802404 -1.720559,-1.872577 0,-0.134788 0.113258,-0.161876 0.199541,-0.172584 v -0.113395 h -2.259849 v 0.113395 c 0.140209,0.01115 0.253457,0.03779 0.253457,0.172584 v 3.610228 c 0,0.129504 -0.113258,0.156472 -0.237338,0.16716 v 0.113395 h 1.623567 v -0.113395 c -0.129504,-0.01115 -0.248176,-0.03766 -0.248176,-0.16716 v -2.487738 l 0.02153,-0.0163 c 1.068019,1.251998 2.286945,2.336692 2.286945,2.552491 0,0.113396 -0.178003,0.124083 -0.275133,0.124083 v 0.113396 h 1.758355 v -0.113396 c -0.151051,-0.01115 -0.269576,-0.03779 -0.269576,-0.167296 v -3.615509 z"
       id="path142"
       inkscape:connector-curvature="0"
       style="clip-rule:evenodd;fill:#ffffff;fill-rule:evenodd;stroke-width:1.38956" />
    <path
       d="m 55.354202,93.865266 v -0.939068 h 1.785313 c 0.07545,0 0.172584,0.03779 0.172584,0.221358 h 0.113258 v -1.235879 h -0.118662 c 0,0.178142 -0.09699,0.221358 -0.172584,0.221358 h -1.785313 v -0.771764 h 2.772321 c 0.07558,0 0.172723,0.03779 0.172723,0.226638 H 58.4071 v -1.273398 h -0.113258 c 0,0.172584 -0.09713,0.210381 -0.172723,0.210381 h -4.309457 v 0.113395 c 0.129366,0.01115 0.264295,0.03766 0.264295,0.172584 v 3.610228 c 0,0.129504 -0.134925,0.156472 -0.264295,0.167159 v 0.113396 h 4.234003 c 0.151051,0 0.199542,0.02695 0.264296,0.19968 h 0.09713 v -1.273536 h -0.113258 c -0.03779,0.172723 -0.129504,0.237477 -0.248177,0.237477 z"
       id="path144"
       inkscape:connector-curvature="0"
       style="clip-rule:evenodd;fill:#ffffff;fill-rule:evenodd;stroke-width:1.38956" />
    <path
       d="m 59.631421,94.523503 0.102416,0.0271 c 0.06476,-0.06476 0.134925,-0.129504 0.221219,-0.129504 0.07545,0 1.138053,0.339888 2.049608,0.339888 1.450844,0 2.087265,-0.647538 2.087265,-1.386786 0,-1.651359 -3.10665,-0.955187 -3.10665,-1.635101 0,-0.41548 0.841382,-0.415619 1.084,-0.415619 0.636559,0 1.310776,0.253735 1.310776,0.350866 0,0.03779 -0.01081,0.07545 -0.01081,0.102553 l 0.124083,0.05392 0.566248,-1.197943 -0.102416,-0.03779 c -0.0485,0.03779 -0.102553,0.113241 -0.21038,0.113241 -0.21038,0 -0.987008,-0.248176 -1.887724,-0.248176 -1.547975,0 -2.108942,0.825679 -2.108942,1.413882 0,1.591885 3.106788,0.874175 3.106788,1.613423 0,0.372404 -0.625721,0.4102 -0.863058,0.4102 -0.771348,0 -1.860766,-0.248315 -1.860766,-0.496492 0,-0.04863 0.01064,-0.07559 0.01064,-0.102553 l -0.123946,-0.05392 z"
       id="path146"
       inkscape:connector-curvature="0"
       style="clip-rule:evenodd;fill:#ffffff;fill-rule:evenodd;stroke-width:1.38956" />
    <path
       d="m 72.802688,92.537676 c 0,0.728549 -0.436879,1.02536 -1.197388,1.02536 -0.760508,0 -1.197388,-0.296811 -1.197388,-1.02536 v -2.546933 c 0,-0.08643 0.02695,-0.151188 0.264296,-0.172723 v -0.113395 h -1.957897 v 0.113395 c 0.237338,0.01613 0.264295,0.08629 0.264295,0.172723 v 2.546933 c 0,1.672897 1.17043,2.223304 2.621275,2.223304 1.450983,0 2.621414,-0.550407 2.621414,-2.223304 v -2.546933 c 0,-0.08643 0.02695,-0.151188 0.264295,-0.172723 v -0.113395 h -1.952616 v 0.113395 c 0.237337,0.01613 0.264295,0.08629 0.264295,0.172723 v 2.546933 z"
       id="path148"
       inkscape:connector-curvature="0"
       style="clip-rule:evenodd;fill:#ffffff;fill-rule:evenodd;stroke-width:1.38956" />
    <path
       d="m 81.033497,90.810864 c 0,-0.134788 0.113258,-0.161876 0.264295,-0.172584 v -0.113395 h -1.672063 v 0.113395 c 0.151051,0.01115 0.264295,0.03779 0.264295,0.172584 v 1.872577 c -0.798305,-0.863475 -1.720559,-1.802404 -1.720559,-1.872577 0,-0.134788 0.113258,-0.161876 0.199542,-0.172584 v -0.113395 h -2.259988 v 0.113395 c 0.140208,0.01115 0.258875,0.03779 0.258875,0.172584 v 3.610228 c 0,0.129504 -0.113258,0.156472 -0.237337,0.16716 v 0.113395 h 1.623567 v -0.113395 c -0.129504,-0.01115 -0.248176,-0.03766 -0.248176,-0.16716 v -2.487738 l 0.0163,-0.0163 c 1.0733,1.251998 2.286946,2.336692 2.286946,2.552491 0,0.113396 -0.178003,0.124083 -0.275134,0.124083 v 0.113396 h 1.758355 v -0.113396 c -0.151085,-0.01115 -0.264334,-0.03776 -0.264334,-0.167262 v -3.615508 z"
       id="path150"
       inkscape:connector-curvature="0"
       style="clip-rule:evenodd;fill:#ffffff;fill-rule:evenodd;stroke-width:1.38956" />
    <path
       d="m 82.754056,90.519611 v 0.113258 c 0.188703,0.01115 0.302091,0.03779 0.302091,0.172723 v 3.610089 c 0,0.129504 -0.113395,0.156472 -0.302091,0.167297 v 0.113258 h 1.882304 v -0.113258 c -0.188703,-0.01115 -0.301952,-0.03779 -0.301952,-0.167297 v -3.610089 c 0,-0.134925 0.113258,-0.161893 0.301952,-0.172723 v -0.113258 z"
       id="path152"
       inkscape:connector-curvature="0"
       style="clip-rule:evenodd;fill:#ffffff;fill-rule:evenodd;stroke-width:1.38956" />
    <path
       d="m 86.330101,94.415673 c 0,0.129504 -0.113258,0.156472 -0.248176,0.167297 v 0.113258 h 2.847912 c 1.407768,0 1.974016,-0.971306 1.974016,-2.093796 0,-1.116933 -0.571667,-2.088238 -1.974016,-2.088238 h -2.847912 v 0.113258 c 0.134925,0.01115 0.248176,0.03779 0.248176,0.172723 z m 1.272841,-2.984229 h 0.685055 c 0.970889,0 1.386091,0.323768 1.386091,1.176405 0,0.858056 -0.415202,1.181825 -1.386091,1.181825 h -0.685055 z"
       id="path154"
       inkscape:connector-curvature="0"
       style="clip-rule:evenodd;fill:#ffffff;fill-rule:evenodd;stroke-width:1.38956" />
    <path
       d="m 93.800262,93.174514 0.776627,-1.662059 0.798305,1.662059 z m 3.62454,1.527131 V 94.58825 c -0.07545,0 -0.161738,-0.02695 -0.188841,-0.09171 -0.415202,-0.982145 -1.747517,-3.647886 -1.747517,-3.761135 0,-0.06476 0.02695,-0.08643 0.124083,-0.09713 V 90.52488 h -1.984854 v 0.113395 c 0.09713,0.01115 0.124083,0.03237 0.124083,0.09713 0,0.129504 -0.884597,1.980407 -1.639687,3.761135 -0.02695,0.06476 -0.113258,0.09171 -0.188842,0.09171 v 0.113395 h 1.423887 V 94.58825 c -0.03766,0 -0.123945,0 -0.123945,-0.08087 0,-0.102554 0.21566,-0.474954 0.274995,-0.647538 h 2.206072 c 0.06476,0.172584 0.274995,0.544988 0.274995,0.647538 0,0.08087 -0.08629,0.08087 -0.123945,0.08087 v 0.113395 z"
       id="path156"
       inkscape:connector-curvature="0"
       style="clip-rule:evenodd;fill:#ffffff;fill-rule:evenodd;stroke-width:1.38956" />
    <path
       d="m 98.471145,94.523503 0.102553,0.0271 c 0.07003,-0.06476 0.134788,-0.129504 0.22108,-0.129504 0.07545,0 1.138053,0.339888 2.049612,0.339888 1.45084,0 2.0874,-0.647538 2.0874,-1.386786 0,-1.651359 -3.106789,-0.955187 -3.106789,-1.635101 0,-0.41548 0.846799,-0.415619 1.084139,-0.415619 0.63642,0 1.31064,0.253735 1.31064,0.350866 0,0.03779 -0.0108,0.07545 -0.0108,0.102553 l 0.12408,0.05392 0.57167,-1.197943 -0.10242,-0.03779 c -0.0485,0.03779 -0.10255,0.113241 -0.21038,0.113241 -0.21038,0 -0.98701,-0.248176 -1.88772,-0.248176 -1.547976,0 -2.108943,0.825679 -2.108943,1.413882 0,1.591885 3.106793,0.874175 3.106793,1.613423 0,0.372404 -0.62573,0.4102 -0.86306,0.4102 -0.76593,0 -1.860769,-0.248315 -1.860769,-0.496492 0,-0.04863 0.01064,-0.07559 0.01064,-0.102553 l -0.123946,-0.05392 z"
       id="path158"
       inkscape:connector-curvature="0"
       style="clip-rule:evenodd;fill:#ffffff;fill-rule:evenodd;stroke-width:1.38956" />
    <path
       d="M 110.68778,112.54171 H 9.7076121 v 37.04567 H 110.68778 Z"
       stroke-miterlimit="3.8637"
       id="path160"
       inkscape:connector-curvature="0"
       style="fill:#524a6d;fill-opacity:1;stroke:#524a6d;stroke-width:0.696033;stroke-miterlimit:3.8637;stroke-opacity:1" />
    <path
       d="m 18.731195,138.28188 c 0,1.66192 1.32684,3.02231 2.950337,3.02231 1.618052,0 2.950367,-1.36039 2.950367,-3.02231 v -2.20664 h -1.968735 v 3.04872 h -1.968667 v -15.41737 h 1.968667 v 3.04884 h 1.968735 v -2.20705 c 0,-1.66205 -1.326895,-3.0273 -2.950367,-3.0273 -1.623497,0 -2.950337,1.36525 -2.950337,3.0273 z"
       id="path162"
       inkscape:connector-curvature="0"
       style="clip-rule:evenodd;fill:#ffffff;fill-rule:evenodd;stroke-width:1.38956" />
    <path
       d="m 44.113874,121.68838 h -3.932051 c -1.089558,0 -1.968736,0.90113 -1.968736,2.01821 v 15.41737 c 0,1.11721 0.873759,2.01765 1.968736,2.01765 h 3.932051 v -2.01765 h -3.932051 v -6.70244 h 2.950324 v -2.01821 h -2.950324 v -6.70214 h 3.932051 z"
       id="path164"
       inkscape:connector-curvature="0"
       style="clip-rule:evenodd;fill:#ffffff;fill-rule:evenodd;stroke-width:1.38956" />
    <path
       d="m 57.695063,141.14161 h 1.968735 v -8.72009 h 1.968596 c 1.089558,0 1.963316,-0.90113 1.963316,-2.01821 v -6.70214 c 0,-1.11694 -0.873758,-2.01821 -1.963316,-2.01821 h -3.931912 v 19.45865 z m 1.963316,-17.43502 h 1.968596 v 6.70214 h -1.968596 z"
       id="path166"
       inkscape:connector-curvature="0"
       style="clip-rule:evenodd;fill:#ffffff;fill-rule:evenodd;stroke-width:1.38956" />
    <path
       d="m 77.171619,141.14161 h 1.968596 v -8.72009 h 1.968735 v 8.72009 h 1.968736 v -16.59323 c 0,-1.66205 -1.326896,-3.0273 -2.950324,-3.0273 -1.623568,0 -2.950324,1.36525 -2.950324,3.0273 v 16.59323 z m 1.968596,-17.43502 h 1.968735 v 6.70214 h -1.968735 z"
       id="path168"
       inkscape:connector-curvature="0"
       style="clip-rule:evenodd;fill:#ffffff;fill-rule:evenodd;stroke-width:1.38956" />
    <path
       d="m 97.138969,141.14161 h 5.900651 v -6.04351 h -1.9686 v 4.03142 h -1.968735 v -17.44114 h -1.963316 z"
       id="path170"
       inkscape:connector-curvature="0"
       style="clip-rule:evenodd;fill:#ffffff;fill-rule:evenodd;stroke-width:1.38956" />
    <path
       d="m 36.7892,48.946614 c 0,-12.96714 10.479959,-23.479059 23.408469,-23.479059 12.928649,0 23.408607,10.511919 23.408607,23.479059 0,12.967279 -10.479958,23.473778 -23.408607,23.473778 C 47.269159,72.425881 36.7892,61.913893 36.7892,48.946614 Z m 9.50907,-12.95644 -2.637533,-2.557772 c -3.699994,3.971654 -6.003198,9.281597 -6.09477,15.141948 h 3.656779 c 0.09713,-4.862087 2.006531,-9.276179 5.075524,-12.584176 z m 3.160704,3.065101 -2.605156,-2.530814 c -2.934205,3.173071 -4.757175,7.392901 -4.848886,12.049889 h 3.62454 c 0.08629,-3.674843 1.526437,-7.004379 3.829502,-9.519075 z m 24.632813,22.853199 2.637533,2.55791 c 3.699994,-3.971653 6.003059,-9.281597 6.09477,-15.141947 h -3.656917 c -0.09157,4.856667 -2.000974,9.270759 -5.075386,12.584037 z M 59.809424,29.919443 v -3.691101 c -6.089489,0.10255 -11.601753,2.622665 -15.614677,6.648234 l 2.637532,2.557772 c 3.343988,-3.323978 7.917879,-5.412355 12.977145,-5.514905 z m 0,4.397972 v -3.642466 c -4.838186,0.102554 -9.223235,2.099077 -12.427016,5.293686 l 2.605156,2.530815 c 2.545822,-2.503857 6.003059,-4.084904 9.82186,-4.182035 z m 0,5.175017 v -4.424929 c -3.597583,0.102553 -6.866117,1.591885 -9.271731,3.966234 l 3.160704,3.070521 c 1.607309,-1.53797 3.748489,-2.514695 6.111027,-2.611826 z m 0,32.177873 V 67.979343 C 54.750158,67.87679 50.176267,65.788416 46.832279,62.4643 l -2.637532,2.55791 c 4.012924,4.025569 9.525188,6.545545 15.614677,6.648095 z m 0.776628,-36.602802 v 4.424929 c 2.362399,0.09713 4.503718,1.068437 6.111028,2.611826 l 3.166123,-3.070521 C 67.44675,36.659388 64.178216,35.170052 60.586052,35.067503 Z M 44.626206,59.830935 C 44.275619,59.66906 43.860278,59.47479 43.61766,59.334444 43.229277,59.107806 43.498998,58.85963 43.186062,58.632992 42.873271,58.406354 42.76544,58.433311 42.45793,58.206673 c -0.312791,-0.226638 0.248176,-0.194261 -0.366706,-0.437157 -0.204961,-0.07545 -0.242757,0.237477 -0.631141,0.156609 -0.388244,-0.07558 -0.366706,-0.793302 -0.614882,-0.793302 -0.695755,0 -0.798166,-0.911972 -0.841382,-1.521713 -0.07545,-1.068575 0.760509,-0.890433 0.760509,-0.890433 l 0.571806,0.237477 0.296533,-0.474953 c 0,0 0.107975,0 0.415341,0.04321 -0.506913,-1.65122 -0.792886,-3.39971 -0.825262,-5.207394 h -3.656779 c 0.09699,5.86035 2.394776,11.170294 6.09477,15.141948 l 2.637533,-2.557911 c -0.604044,-0.642122 -1.159592,-1.338293 -1.672064,-2.072123 z m 2.750783,1.030641 c -0.05392,-0.02153 -0.107837,-0.03237 -0.156472,-0.04308 -0.21566,-0.04321 -0.388244,0.140209 -0.663378,0.242757 0.09171,0.107974 0.188842,0.210519 0.285833,0.318349 z m 5.032308,0.458695 -0.0163,0.02695 c -0.231918,0.377822 -0.345168,0.280692 -1.121796,0.361564 -0.776766,0.07559 -0.943931,0.464115 -1.48864,0.539707 -0.539429,0.07545 -0.463837,0 -0.933093,-0.453276 -0.21038,-0.19968 -0.480095,-0.40478 -0.749809,-0.577503 l -0.722713,0.701591 c 3.2092,3.19461 7.58883,5.196556 12.427017,5.299105 v -3.642466 c -2.707706,-0.06476 -5.242689,-0.885013 -7.394708,-2.25568 z m -9.077609,-6.631976 c 0.544848,-0.07558 0.733551,0.04321 1.240603,-0.05392 0.507053,-0.09185 0.204961,-1.284375 0.204961,-1.759189 0,-0.474953 0.490794,-0.928229 0.835962,-1.403044 0.06476,-0.09171 0.124083,-0.161875 0.188842,-0.226638 -0.09713,-0.625999 -0.156472,-1.268116 -0.172584,-1.915654 h -3.62454 c 0.03766,1.877858 0.356006,3.685543 0.916834,5.379978 0.102554,0.0055 0.226638,0.0055 0.409922,-0.02153 z m 24.3524,-12.476206 c 0.172584,0.275272 0.809143,1.278955 1.28368,1.64052 0.550267,0.426318 1.283679,0.739248 1.677482,0.987563 0.393803,0.248177 -0.507052,0.302092 -0.167159,0.588064 0.339748,0.291531 1.05718,-0.507191 1.240464,-0.507191 0.183423,0 0.593344,0.09713 0.593344,0.631418 0,0.534149 -0.296672,0.960467 -0.04321,1.003683 0.237338,0.03779 1.024804,-1.019941 1.078858,-1.845481 -0.140346,-0.442577 -0.302091,-0.868895 -0.480094,-1.289794 -0.517752,-0.555826 -1.256723,-0.674495 -1.272841,-0.992844 -0.02711,-0.539707 0.274994,-0.528868 0.469117,-0.577503 -0.479956,-0.809422 -1.040923,-1.570208 -1.671925,-2.26638 z m -10.90058,2.892378 c 0.204961,0.0055 0.442299,0 0.792886,-0.04308 0.819843,-0.09171 0.679636,-1.446259 1.256722,-1.273536 0.350587,0.102553 0.674217,0.06476 0.970889,-0.0055 v -3.529216 c -2.141319,0.09713 -4.093797,0.982144 -5.560899,2.390607 z m -3.95887,-0.685333 c 0.312791,-0.09171 0.636421,-0.161876 0.943793,-0.194261 1.28368,-0.124083 1.28368,0.955187 1.28368,0.955187 0,0 0.242757,-0.07559 0.609602,-0.107975 l -1.941778,-1.883277 c -0.334468,0.383103 -0.631001,0.793303 -0.895297,1.230321 z m -3.856459,4.155216 c 0.134788,-0.269854 0.242618,-0.593622 0.264157,-0.976725 0.04321,-0.750088 0.21038,-1.834782 1.413187,-1.915654 1.078719,-0.07559 -0.09713,-0.480373 0.463837,-0.658376 0.167296,-0.05392 0.382964,-0.134925 0.63114,-0.226638 0.377545,-0.777045 0.8575,-1.494755 1.423887,-2.131592 l -3.160704,-3.070383 c -2.157438,2.379769 -3.511291,5.514905 -3.603002,8.984787 h 2.567498 z m -0.636559,2.093796 c 0.04321,0.242757 0.496213,0.323768 0.264295,1.014382 l -0.01064,0.0271 c 0,0 -0.469256,0.242757 -0.469256,-0.04321 v -0.05934 c -0.0163,-0.280692 -0.167297,-0.647537 -0.124083,-1.149448 0.03779,-0.474814 0.307372,-0.83096 0.517752,-1.13319 h -2.108943 c 0.0163,0.566525 0.06476,1.12777 0.14563,1.672758 0.02695,0.0055 0.05934,0.01115 0.08629,0.0163 0.366845,0.08087 0.836101,0.690753 1.159731,0.690753 0.194122,0 0.253457,-0.05934 0.32363,-0.09713 v 0.05934 c 0,0.285972 0.469256,0.04321 0.469256,0.04321 l 0.01064,-0.0271 c 0.231918,0.134925 0.469256,0.388522 0.560967,0.712291 0.124083,0.453415 0.544709,1.802404 0.668798,2.002084 0.124083,0.194262 0.285833,0.809422 0.285833,1.284375 0,0.474814 0.382964,0.528729 0.42618,0.890294 0.04308,0.356146 0.161738,1.003683 0.161738,1.003683 l -0.350587,0.399361 2.815536,-2.735914 c -1.121935,-1.268117 -1.91482,-2.843883 -2.227611,-4.592234 -0.134788,-0.03237 -0.253457,-0.0485 -0.356007,-0.01613 -0.479955,0.167297 0.14563,1.100814 -0.334329,0.992844 -0.339888,-0.07559 -0.593344,-0.232057 -0.507052,-0.496491 0.08629,-0.259015 0.382964,0.04321 0.382964,-0.631279 0,-0.334608 -0.566387,-0.615161 -0.04308,-0.615161 0.129367,0 0.393664,0.285973 0.604044,0.285973 0.06476,0 0.124083,-0.0055 0.172584,-0.02695 -0.03237,-0.253595 -0.05392,-0.50733 -0.06476,-0.766345 -0.02695,-0.01613 -0.0485,-0.03779 -0.07003,-0.05392 h -0.64184 c -0.02168,0.118662 -0.129504,0.19968 -0.377683,0.21038 -0.852081,0.03237 -0.571667,0.491072 -0.614883,0.739387 -0.03223,0.253596 -0.798166,0.151051 -0.755089,0.399361 z m 2.513444,-2.730634 c -0.377544,-0.161876 -1.100257,-0.140209 -1.100257,0.237477 0,0.118662 0.04308,0.259015 0.102416,0.399361 h 0.949351 c 0.01081,-0.215939 0.02695,-0.426319 0.0485,-0.636838 z m 4.509138,5.180436 c -0.954631,0 -0.01081,-1.348989 -0.258876,-1.408324 -0.636421,-0.16203 -0.296672,0.712291 -0.550129,0.712291 -0.253595,0 -0.566386,-0.30223 -0.566386,-0.464114 0,-0.161876 0.124083,-0.577364 -0.21038,-0.577364 -0.339749,0 -0.733552,-0.194262 -1.030085,-0.286112 -0.269714,-0.08629 -0.598763,-0.129504 -0.95477,-0.194261 0.32363,1.44084 1.003266,2.746753 1.936359,3.80977 z m 1.332176,-1.597304 c -0.07545,-0.05934 -0.161739,-0.102554 -0.269576,-0.102554 -0.339887,0 -0.620302,1.079275 -0.879178,1.516432 l 1.278261,-1.241159 c -0.04308,-0.05392 -0.08629,-0.113258 -0.129504,-0.172723 z m -1.369972,-2.196207 c -0.04308,0.145629 -0.102416,0.296811 -0.226499,0.420899 -0.194122,0.19968 0.393802,0.259015 0.819843,0.178003 l 0.05392,-0.01115 c -0.04308,-0.188842 -0.07545,-0.388522 -0.09171,-0.588203 z m 4.493018,-4.840549 c -0.21038,-0.08087 -0.415341,-0.07545 -0.356006,0.156609 0.113258,-0.02168 0.231918,-0.03779 0.356006,-0.04864 z m 1.197388,8.062115 c 0.161739,-0.19968 0.318211,-0.361564 0.339749,-0.593622 0.08087,-0.906552 1.013965,-0.242757 1.369972,-0.577364 0.350587,-0.329188 0.620301,-1.23032 0.31293,-1.451678 -0.31293,-0.215799 0.803585,-0.05392 0.717293,-0.426318 -0.08629,-0.372265 -0.943931,0.08101 -1.030223,-0.248177 -0.08629,-0.329188 -0.679636,-0.372264 -0.296672,-2.120753 0.09171,-0.404642 -0.760509,-0.08087 -0.900716,-1.165567 -0.02695,-0.221219 -0.86292,-0.08629 -1.100258,-0.285973 -0.21038,-0.178142 -0.312791,-0.307649 -0.345167,-0.410199 -0.140346,0.0055 -0.280554,0.0163 -0.420761,0.03779 0.07018,0.350865 0.07018,0.690752 -0.140208,0.825679 -0.339888,0.215799 -0.64726,0.178003 -0.906136,0.345307 -0.253595,0.161875 0.08629,0.366984 -0.21038,0.572084 -0.296672,0.20496 -0.857639,0.339887 -0.819843,0.631279 0.04321,0.286111 0.496214,0.410199 0.350587,0.572084 -0.140208,0.167296 -0.480094,-0.248316 -0.604043,0.04308 -0.124083,0.286111 0,1.079275 -0.339888,1.079275 -0.312791,0 0.0055,-0.539568 -0.436879,-0.706872 -0.0053,0.09171 -0.01064,0.183423 -0.01064,0.280554 0,0.242895 0.02155,0.485652 0.07003,0.712429 0.04864,-0.0055 0.102553,-0.0055 0.161893,0 0.382964,0.04308 -0.08629,0.221219 0.382964,0.221219 0.463836,0 0.32891,-0.836518 0.63642,-0.793302 0.307372,0.04321 0.172584,1.289655 -0.21038,1.575766 -0.382964,0.285972 -0.339748,-0.248315 -0.463836,0.04308 -0.0163,0.04864 -0.03237,0.09713 -0.04321,0.145768 0.118662,0.19968 0.259015,0.388522 0.415341,0.566525 0.442298,0 0.361426,-0.669075 0.652678,-0.755367 0.296672,-0.08101 -0.05392,-0.917391 0.679636,-0.998403 0.733552,-0.08087 1.100258,-0.275133 1.326757,0.221358 0.226499,0.490933 -0.506913,1.904815 -0.846801,1.948031 -0.765928,0.09171 -1.197388,-0.08101 -1.197388,0.08087 0,0.0163 -0.0055,0.03237 -0.01064,0.04863 0.598624,0.426318 1.332176,0.679914 2.119642,0.679914 0.275134,-0.0055 0.539429,-0.03779 0.798305,-0.09713 z m -0.42076,2.196207 c 0.285834,-0.19968 0.442299,-0.393941 0.550129,-0.620579 0.42076,-0.917252 -0.593205,-0.01115 -0.506913,-0.750087 l 0.01064,-0.06476 -0.0485,0.0055 v 1.430001 z m -0.776628,2.595707 c -0.15105,0.02695 -0.291252,0.01613 -0.382964,-0.05405 -0.285833,-0.210381 -0.334468,-1.214063 0.382964,-1.322032 v -2.655042 c -0.933092,-0.08087 -1.785312,-0.463975 -2.459529,-1.063017 l -3.10137,3.011187 c 1.467103,1.408324 3.41958,2.293338 5.560899,2.390468 z m 0.776628,-0.08101 c 0.151051,-0.09171 0.366845,-0.167297 0.717432,-0.188842 0.922254,-0.05934 0.814424,0.183423 1.084,0.307511 1.041062,-0.275134 2.006531,-0.744668 2.858751,-1.365248 -0.178003,-0.275133 -0.463836,0.313069 -0.857639,0.232058 -0.393803,-0.08087 -0.463837,-0.544988 0,-0.917391 0.463837,-0.366845 0.846801,-0.544987 0.636421,-0.793163 -0.210381,-0.248316 -0.857501,0.05392 -1.0733,0.426318 -0.21038,0.366845 -0.124083,1.575627 -0.463837,1.618843 -0.339887,0.04321 -0.679636,0.0055 -1.240603,-0.161876 -1.369972,-0.41006 -1.28368,0.437157 -1.537137,0.571945 l -0.124083,0.06476 z m -0.776628,4.921416 c -0.31821,0.02695 -0.577225,0 -1.116515,-0.156472 C 57.82985,61.77354 56.98305,60.43525 56.98305,60.143859 c 0,-0.285973 0.339887,-0.410061 0.426179,-0.615161 0.08629,-0.204961 0.129367,-0.507191 0.21038,-0.755367 0.0485,-0.151188 0.274995,-0.388661 0.517752,-0.593622 -1.693601,-0.383103 -3.220038,-1.22504 -4.438964,-2.396027 l -2.810117,2.730495 c 0.485375,0.210519 0.140209,0.426319 0.506913,0.852637 0.388383,0.453276 0.809144,0.431738 1.121935,0.728549 0.129504,0.124083 0.167159,0.296811 0.156472,0.480233 2.065726,1.354548 4.514417,2.163969 7.135831,2.239423 z m 2.772321,0.447857 c -0.09713,-0.226638 -0.16716,-0.458695 -0.291253,-0.598903 -0.242757,-0.280692 -0.933093,-0.02168 -1.70444,0.07545 v 0.723129 c 0.679636,-0.01613 1.343014,-0.08629 1.995693,-0.19968 z m 4.336415,4.635449 c -0.237199,0 -0.496214,-0.102554 -0.75509,-0.237477 -0.291253,-0.156472 -0.577086,-0.356145 -0.819843,-0.51261 -0.490794,-0.323769 -1.165011,-0.955187 -1.553394,-1.494755 -0.382826,-0.528868 0.388383,-1.12791 -0.625583,-1.726812 -0.836101,0.172584 -1.693601,0.275134 -2.572779,0.296811 v 3.642466 c 1.639687,-0.03237 3.225458,-0.291392 4.730218,-0.728549 0.269714,0.172723 0.550128,0.372403 0.841381,0.528868 -1.758355,0.582784 -3.62996,0.917391 -5.571599,0.955187 v 3.690962 c 6.08949,-0.102553 11.596335,-2.622525 15.614678,-6.648233 l -2.637533,-2.557772 c -1.202807,1.197944 -2.56194,2.234003 -4.050581,3.075801 -0.927812,0.777184 -2.249288,1.716113 -2.599875,1.716113 z m 1.413187,-9.886058 c -1.39693,0.167296 -2.205934,-0.874176 -2.443272,-0.722991 -0.253595,0.161893 -0.253595,0.285972 -0.253595,0.426319 0,0.140208 2.173696,0.658236 2.740082,0.701452 0.107837,0.0055 0.204961,-0.02153 0.291253,-0.07559 z m 2.826236,-8.051138 c 0.03237,0.09171 0.06476,0.183422 0.08101,0.30223 0.04308,0.366845 1.369972,1.586466 1.369972,2.039742 0,0.453276 -0.738971,0.383103 -1.240603,0.453276 -1.013966,0.134925 -1.013966,0.447857 -1.326757,0.426318 -0.285972,-0.02168 -0.129504,-0.420899 -0.21038,-0.345445 -0.172584,0.167296 -0.652679,1.090113 -0.863059,1.42472 -0.226499,0.366845 -0.782047,0.663656 -1.186549,0.922671 -0.134788,0.183562 -0.275134,0.361565 -0.42076,0.534288 0.140346,0.269853 0.857639,-0.215799 1.143473,-0.296811 0.296672,-0.08087 0.296672,-0.669075 0.647259,-0.712291 0.350587,-0.04321 0.382964,0.161876 0.593344,0.669075 0.21038,0.507331 -0.21038,0.2051 -0.339887,1.537971 -0.02153,0.242896 -0.02153,0.566664 -0.274995,0.798722 l 0.06476,0.05934 c 0.172584,-0.19968 0.366706,-0.377823 0.636421,-0.410199 0.674217,-0.08087 0.377545,0.329187 0.479956,0.836518 0.04863,0.259014 0.183422,0.372264 0.302091,0.491072 2.033489,-2.347392 3.295492,-5.385536 3.381784,-8.736611 h -2.837075 z m 2.740082,-2.039881 c -0.107974,0.08101 -0.237337,0.12422 -0.388383,0.04863 -0.32363,-0.15105 0.08629,-0.696172 0.215799,-1.144028 -0.04321,-0.221219 -0.09171,-0.431738 -0.14563,-0.642118 -0.113395,0.307511 -0.555547,1.381366 -0.933092,1.456958 -0.393803,0.08101 -0.42618,0 -0.803724,0.372404 -0.361426,0.350726 -0.318211,0.755367 -0.566387,1.192524 h 2.713125 c -0.01081,-0.431738 -0.03779,-0.863336 -0.09171,-1.284374 z m -7.847844,-4.73786 c -0.02695,0.0055 -0.0485,0.0055 -0.07545,0.0055 -0.339887,0 -0.507052,0.345307 -0.733551,0 -0.102553,-0.156471 0.102416,-0.296811 0.366706,-0.388522 -1.39151,-1.12791 -3.133607,-1.829362 -5.02147,-1.915654 v 3.345655 c 0.194122,-0.02168 0.377545,0.0055 0.550129,0.124083 1.116515,0.793303 1.035642,-0.960467 1.558814,-0.577364 0.706593,0.51803 -1.121935,1.084555 -0.74439,1.456959 0.382964,0.372403 0.409921,-0.329188 0.803724,-0.248177 0.393664,0.08087 0.253457,0.491072 0.86292,0.491072 0.604182,0 0.339887,-1.208782 1.49406,-1.370666 0.08629,-0.01115 0.156472,-0.0271 0.221218,-0.04321 l 0.32891,-0.323768 c -0.01612,-0.161876 -0.09157,-0.334608 0.420761,-0.410061 l 0.05934,-0.05948 z m 10.841245,-0.895714 c -0.183284,0.09713 -0.399083,0.156472 -0.64184,0.124083 -0.609463,-0.08101 -0.684917,-1.322171 -1.369972,-1.575766 -2.437853,-0.917391 -1.790732,-1.300494 -2.044189,-1.586466 -0.215799,-0.248315 -0.755089,-0.151188 -1.008546,-0.4102 l -0.517891,0.501911 c 0.08629,0.09171 0.178003,0.172723 0.291253,0.237477 0.846801,0.507191 0.339888,1.052178 0.679636,1.300493 0.339749,0.248177 0.226499,-0.161875 0.523171,0.124083 0.296672,0.291392 -0.08629,0.588203 0.253457,0.998264 0.339887,0.410199 0.593344,0.647537 0.679636,1.030779 0.04321,0.183422 0.04863,0.72299 0.06476,1.251859 0.134787,0.345445 0.258875,0.706871 0.366845,1.063156 0.123945,-0.210519 0.280414,-0.523449 0.512332,-0.523449 0.226499,0 0.01081,0.955047 -0.204961,1.742931 0.178004,0.858056 0.280414,1.73765 0.307372,2.644202 h 3.624541 c -0.06462,-2.46078 -0.593206,-4.797333 -1.515599,-6.923367 z m -2.437853,-6.006115 c 0.285834,0.296811 0.728132,0.620579 0.868339,0.798583 0.226499,0.286111 0.674217,0.960606 0.970889,1.548808 0.291253,0.577365 1.801432,2.595568 1.224346,3.167652 1.013965,2.271799 1.60189,4.775656 1.650386,7.41444 h 3.656917 c -0.09699,-5.860347 -2.394776,-11.17029 -6.09477,-15.141944 z m -5.933024,-3.804351 c 0.274995,-0.118662 0.803585,0.129504 1.094838,-0.383103 0.226499,-0.393941 1.197388,0.302092 1.369972,0.08087 0.167296,-0.221218 -0.711874,-1.138609 0.647259,-0.534148 0.933093,0.41006 0,0.658237 0.04321,0.998263 0.04308,0.345307 0.296672,-0.161876 1.28368,1.041479 0.490794,0.598902 -0.2265,0.372264 0.296672,0.944348 0.523171,0.577364 0.63642,0.30223 0.987007,0.426319 0.129367,0.04308 0.172584,0.113258 0.178004,0.194261 L 76.20073,32.876576 C 72.187806,28.851007 66.675542,26.330892 60.586052,26.228342 v 3.691101 c 2.842494,0.05934 5.528522,0.739248 7.934137,1.921073 z M 60.666925,31.59234 c 0.151051,-0.07559 0.593344,0.129504 0.593344,0.345307 0,0.215799 -0.372126,0.323768 -0.593344,0.253595 -0.03237,-0.01115 -0.05934,-0.03237 -0.08087,-0.05934 v 2.185507 c 3.300911,0.08629 6.337526,1.278817 8.74856,3.221567 -0.345168,-0.393941 -0.647259,-0.712291 -0.749809,-0.755506 -0.296533,-0.124083 -0.506913,-0.464115 -0.210241,-0.669076 0.296533,-0.205099 -0.129504,-0.658375 0.04308,-0.960606 0.507052,0 0.350587,0.739249 0.690475,1.122491 0.339749,0.383103 0.463837,-0.09713 0.760509,0.242757 0.296533,0.345446 0.05392,1.219621 0.609463,1.467797 0.107837,0.04863 0.199541,0.107974 0.285833,0.167297 l 0.787467,-0.760926 c -0.129504,-0.534149 -0.318211,-1.165567 -0.690336,-1.365247 -0.550268,-0.285973 -0.474675,0.550406 -0.819843,0.329188 -0.63656,-0.410061 -0.507052,-1.742932 -0.507052,-1.742932 0,0 -0.938512,-0.156609 -0.566387,-1.451678 0.07018,-0.248176 -0.582506,-0.242757 -0.711874,-0.61516 -2.324742,-1.154728 -4.924478,-1.823943 -7.669841,-1.877858 v 1.009102 c 0.02153,-0.03779 0.0485,-0.07018 0.08087,-0.08629 z m 12.119644,30.111034 c -0.291252,0.102553 -0.587925,0.07559 -0.647259,-0.204961 -0.02695,-0.118816 -0.05392,-0.291392 -0.08087,-0.496491 l -1.650525,-1.602724 c -0.113258,0.113395 -0.231919,0.226638 -0.350587,0.334607 -0.02153,0.06476 -0.02695,0.140346 -0.01613,0.210519 0.08629,0.507191 1.116376,1.041479 1.159592,1.370528 0.04321,0.329187 -0.550129,1.127909 -0.550129,1.451678 0,0.215799 0.05392,0.685333 -0.0163,1.160147 0.85222,-0.598902 1.650525,-1.268116 2.384076,-2.001945 z m -0.221218,-2.805948 c 0.814423,-0.07559 0.890016,1.807685 0.814423,2.260961 -0.0053,0.0163 -0.0053,0.03237 -0.01064,0.04863 l 0.172584,0.172584 c 2.934205,-3.172932 4.757175,-7.392762 4.848886,-12.049749 h -3.62454 c -0.09171,3.669423 -1.526437,7.00424 -3.829502,9.518935 l 1.0733,1.041479 c 0.03779,-0.51803 0.178003,-0.955048 0.555548,-0.992844 z M 39.788159,56.38815 c 0.296533,-0.07559 0.226499,0.582783 0.528451,0.949767 0.307511,0.361565 0.382965,0.976725 0.285973,1.084556 -0.178003,0.205099 -0.258876,-0.399222 -0.507052,-1.003683 -0.242757,-0.609741 -0.32363,-0.879594 -0.307372,-1.03064 z m 33.041487,-5.720004 c 0.722851,-0.08101 0.604183,0.426179 0.129504,0.426179 -0.480095,-0.0055 -0.846801,-0.345307 -0.129504,-0.426179 z m -2.524145,5.023832 c 0.296534,-0.2051 0.566248,0.05406 0.253457,0.221219 -0.307511,0.167296 -0.550129,-0.01613 -0.253457,-0.221219 z M 49.998264,52.038673 c 0.296672,-0.20496 0.8468,0.51275 0.409921,0.717711 -0.436879,0.205099 -0.706593,-0.512611 -0.409921,-0.717711 z m 9.16932,0.237477 c 0,-0.102553 0.123946,-0.188842 0.274995,-0.188842 0.151051,0 0.231919,0.03237 0.231919,0.140346 0,0.107837 -0.08087,0.248176 -0.231919,0.248176 -0.151051,-0.0055 -0.274995,-0.09171 -0.274995,-0.19968 z m 1.585633,-1.775308 c 0,-0.09185 0.161875,-0.12422 0.253595,-0.12422 0.09171,0 0.16716,0.07559 0.16716,0.161876 0,0.09185 -0.07545,0.167296 -0.16716,0.167296 -0.09713,0 -0.253595,-0.113258 -0.253595,-0.20496 z M 59.129788,48.88186 c 0.426041,0.372404 0.296672,0.615161 -0.226499,0.534288 -0.523171,-0.08101 0.01613,-0.712291 0.226499,-0.534288 z m 3.387203,1.268117 c 0.09713,0 0.07545,0.356145 -0.01613,0.356145 -0.09713,0 -0.07558,-0.356145 0.01613,-0.356145 z m 2.470368,-7.597862 c 0.296533,0.124083 0.16716,0.755506 -0.253595,0.674495 -0.426041,-0.08629 -0.04308,-0.793303 0.253595,-0.674495 z m -0.679636,0.793164 c 0.21038,0.167296 -0.183422,0.879594 -0.436879,0.755506 -0.253595,-0.124083 0.226499,-0.917391 0.436879,-0.755506 z m 9.811022,-1.03606 c 0.296672,-0.08087 0.674217,1.424721 0.377545,1.548809 -0.404503,0.167297 -0.674217,-1.467797 -0.377545,-1.548809 z M 72.8944,39.51939 c 0.08629,0 0.356006,0.431738 0.269714,0.431738 -0.409922,0.0055 -0.52859,-0.431738 -0.269714,-0.431738 z m -6.655738,-4.21455 c 0,0 0.760509,0.296811 1.197388,0.172723 0.436879,-0.124083 0.550129,-0.280553 0.550129,-0.280553 0,0 0.129504,0.588203 -0.312791,0.669075 -0.431599,0.08101 -1.434726,-0.561245 -1.434726,-0.561245 z m -1.504898,-3.685542 c 0.258876,0 0.442298,0.463975 0.03779,0.463975 -0.404503,0.0055 -0.296673,-0.463975 -0.03779,-0.463975 z m 1.860905,3.124436 c 0.09157,0 0.355867,0.431599 0.264295,0.431599 -0.404641,0 -0.52331,-0.431599 -0.264295,-0.431599 z m -2.017231,-6.982841 c 0.113258,0.145765 -0.07559,0.356146 -0.614883,0.41548 -0.539429,0.05948 -0.890016,0.393942 -1.17043,0.107974 -0.280553,-0.285973 0.65254,-0.269854 0.911416,-0.523449 0.264295,-0.253596 0.469256,-0.361565 0.873897,0 z M 62.2042,27.982111 c 0.22108,0 0.479956,1.100953 0.366706,1.262837 -0.113258,0.16716 -0.366706,0.03766 -0.814424,-0.03779 -0.442298,-0.07018 -0.242757,-0.41548 -0.614882,-0.41548 -0.366706,0 -0.587925,0.253595 -0.555548,-0.03237 0.04321,-0.291531 1.396929,-0.777184 1.618148,-0.777184 z"
       id="path172"
       inkscape:connector-curvature="0"
       style="fill:#ffffff;stroke-width:1.38956" />
    <path
       d="m 60.138473,77.930016 c 0,0 -3.042035,-1.111652 -6.030155,-1.170986 -2.98812,-0.05934 -7.961094,1.511012 -9.654695,1.759189 -2.049608,0.296811 -5.269647,-0.410061 -5.269647,-0.410061 0,0 1.758355,2.692699 7.961094,2.752033 4.91906,0.04864 8.549019,-2.692698 11.704304,-2.633364 -5.204892,2.045161 -7.022582,5.153479 -7.022582,5.153479 l 1.461683,0.350726 c 0,0 4.093797,-4.802753 6.903913,-5.034671 2.810117,0.237338 6.903914,5.034671 6.903914,5.034671 l 1.467102,-0.350726 c 0,0 -1.817689,-3.108318 -7.022582,-5.153479 3.155285,-0.05934 6.785245,2.681999 11.704165,2.633364 6.202739,-0.05934 7.966513,-2.752033 7.966513,-2.752033 0,0 -3.225457,0.706872 -5.269646,0.410061 -1.699021,-0.242896 -6.666576,-1.818524 -9.654696,-1.759189 -2.9934,0.05934 -6.148685,1.170986 -6.148685,1.170986 z m 18.91017,-11.882585 c 0,0 -0.658098,4.025569 -1.348434,5.331482 -1.699021,3.216287 -3.683875,4.21455 -3.683875,4.21455 0,0 3.667756,-1.554089 5.204893,-1.931912 4.568472,-1.111652 7.087336,-2.752033 7.087336,-2.752033 -0.350588,0.879595 -3.036755,4.290003 -6.790664,6.092408 -2.810117,1.348989 -6.440077,-0.636838 -8.721603,-0.636838 0.706593,-0.647537 1.229765,-0.588203 3.398041,-4.457307 2.238311,-4.00403 4.854306,-5.86035 4.854306,-5.86035 z m 11.170294,-4.565276 c 0,0 -1.364553,6.168 -4.212466,8.197042 -3.451957,2.460642 -7.729176,3.394151 -7.729176,3.394151 0.873759,-2.865421 1.051762,-5.96818 1.580352,-7.19864 1.019385,-2.36893 3.214619,-6.264991 3.214619,-6.264991 0,0 0.587925,4.160495 -0.523171,6.972002 -0.760509,1.931773 -1.758355,3.80435 -1.758355,3.80435 0,0 3.743209,-3.108317 4.859725,-3.982492 2.761621,-2.16925 4.568472,-4.921422 4.568472,-4.921422 z m 2.114361,-8.790525 c 0,0 -0.571806,5.358578 -2.810116,8.197042 -1.984855,2.519976 -3.683875,2.98951 -5.614815,5.212674 -0.05934,0 0.345168,-2.16383 0.285834,-3.512958 -0.05934,-1.34899 -0.409922,-3.804351 -0.226499,-5.676789 0.345168,-3.577712 1.289099,-5.747101 1.289099,-5.747101 0,0 0.819843,4.446607 0.819843,6.324465 0,1.877858 -0.647259,5.212813 -0.647259,5.212813 0,0 2.054888,-3.691101 3.165984,-4.862087 1.100396,-1.165567 3.737929,-5.148059 3.737929,-5.148059 z M 92.45196,42.50348 c 0.226499,1.170986 0.873759,4.273884 -0.118662,7.495451 -0.992427,3.221567 -2.518864,3.750435 -4.859724,8.148408 0.118662,-1.64052 0.156317,-2.336553 -0.587925,-3.987912 -2.222192,-4.916002 -1.752936,-9.076498 -1.752936,-9.076498 0,0 2.157438,3.367332 2.518864,4.565276 0.873758,2.930175 0.64184,5.153479 0.64184,5.153479 0,0 1.289099,-4.511361 1.758355,-6.092408 0.469256,-1.575766 1.693601,-3.275621 2.400195,-6.205796 z m -4.104635,-8.315572 c 0,0 0.382964,3.998612 0.237338,5.390816 -0.356007,3.334956 -0.178004,6.556523 -0.178004,6.556523 0,0 -1.165011,-3.156814 -2.103523,-4.387134 -0.938512,-1.23046 -3.457376,-3.28104 -3.457376,-3.28104 0,0 0.528591,3.226986 2.696868,5.914404 2.864031,3.556035 3.166123,6.610437 3.166123,6.610437 0,0 1.9308,-4.268465 2.103523,-9.071217 0.188703,-5.212813 -2.464949,-7.732789 -2.464949,-7.732789 z m -4.385049,-4.62461 c 1.337595,3.275482 1.456263,6.443133 2.103523,9.130413 -0.873759,-1.34899 -1.564233,-2.78441 -2.696867,-3.512959 -2.281527,-1.467797 -3.62996,-3.275482 -3.62996,-3.275482 -0.178004,0.291392 -0.05934,3.512959 3.451956,5.914265 2.535122,1.732232 4.158551,4.333219 4.158551,4.333219 0,-4.511222 0.701174,-3.577712 0.463836,-6.097827 -0.458417,-4.969917 -3.851039,-6.491629 -3.851039,-6.491629 z M 41.346834,66.047431 c 0,0 0.652678,4.025569 1.348433,5.331482 1.699021,3.216287 3.689295,4.21455 3.689295,4.21455 0,0 -3.667617,-1.554089 -5.204893,-1.931912 -4.568472,-1.111652 -7.087197,-2.752033 -7.087197,-2.752033 0.350587,0.879595 3.036616,4.290003 6.790525,6.092408 2.810117,1.348989 6.440077,-0.636838 8.721603,-0.636838 -0.706594,-0.647537 -1.229765,-0.588203 -3.398042,-4.457307 -2.24373,-4.00403 -4.859724,-5.86035 -4.859724,-5.86035 z M 30.17654,61.482155 c 0,0 1.364691,6.168 4.207185,8.197042 3.451957,2.460642 7.729037,3.394151 7.729037,3.394151 -0.873758,-2.865421 -1.051762,-5.96818 -1.580352,-7.19864 -1.019385,-2.36893 -3.214619,-6.264991 -3.214619,-6.264991 0,0 -0.587925,4.160495 0.523171,6.972002 0.760509,1.931773 1.758355,3.80435 1.758355,3.80435 0,0 -3.743209,-3.108317 -4.859725,-3.982492 C 31.98353,64.234327 30.17654,61.482155 30.17654,61.482155 Z M 28.062317,52.69163 c 0,0 0.571667,5.358578 2.810117,8.197042 1.984854,2.519976 3.689155,2.98951 5.614814,5.212674 0.05934,0 -0.345307,-2.16383 -0.285972,-3.512958 0.05934,-1.34899 0.409921,-3.804351 0.226638,-5.676789 -0.345307,-3.577712 -1.2891,-5.747101 -1.2891,-5.747101 0,0 -0.814423,4.446607 -0.814423,6.324465 0,1.877858 0.64712,5.212813 0.64712,5.212813 0,0 -2.049469,-3.691101 -3.165984,-4.862087 -1.111096,-1.165567 -3.74321,-5.148059 -3.74321,-5.148059 z M 27.943655,42.50348 c -0.226499,1.170986 -0.873758,4.273884 0.118662,7.495451 0.992427,3.221567 2.518864,3.750435 4.859725,8.148408 -0.118662,-1.64052 -0.156472,-2.336553 0.587786,-3.987912 2.222192,-4.916002 1.752936,-9.076498 1.752936,-9.076498 0,0 -2.157439,3.367332 -2.518725,4.565276 -0.873759,2.930175 -0.64184,5.153479 -0.64184,5.153479 0,0 -1.283819,-4.511361 -1.758356,-6.092408 -0.469256,-1.575766 -1.693601,-3.275621 -2.400195,-6.205796 z m 4.099216,-8.315572 c 0,0 -0.382964,3.998612 -0.237338,5.390816 0.356007,3.334956 0.178004,6.556523 0.178004,6.556523 0,0 1.165011,-3.156814 2.103523,-4.387134 0.938512,-1.23046 3.457237,-3.28104 3.457237,-3.28104 0,0 -0.533871,3.226986 -2.696728,5.914404 -2.864032,3.556035 -3.160704,6.610437 -3.160704,6.610437 0,0 -1.93094,-4.268465 -2.108943,-9.071217 -0.183422,-5.212813 2.464949,-7.732789 2.464949,-7.732789 z m 4.39033,-4.62461 c -1.337595,3.275482 -1.456264,6.443133 -2.103523,9.130413 0.873897,-1.34899 1.558813,-2.78441 2.691448,-3.512959 2.281526,-1.467797 3.62996,-3.275482 3.62996,-3.275482 0.178003,0.291392 0.05934,3.512959 -3.451957,5.914265 -2.534983,1.732232 -4.15855,4.333219 -4.15855,4.333219 0,-4.511222 -0.701175,-3.577712 -0.463837,-6.097827 0.463976,-4.969917 3.856459,-6.491629 3.856459,-6.491629 z m 41.488088,-1.921074 c 2.416453,5.099425 6.758287,7.72209 6.758287,7.72209 -0.900716,-6.680611 -6.758287,-7.72209 -6.758287,-7.72209 z m -35.635943,0 c -2.416314,5.099425 -6.758287,7.72209 -6.758287,7.72209 0.906135,-6.680611 6.758287,-7.72209 6.758287,-7.72209 z"
       id="path174"
       inkscape:connector-curvature="0"
       style="clip-rule:evenodd;fill:#ffffff;fill-rule:evenodd;stroke-width:1.38956" />
  </g>
</svg>
