<?xml version="1.0" encoding="UTF-8" standalone="no"?>
<!-- Created with Inkscape (http://www.inkscape.org/) -->

<svg
   width="99.01516mm"
   height="115.26678mm"
   viewBox="0 0 99.01516 115.26679"
   version="1.1"
   id="svg2365"
   inkscape:version="1.1.2 (b8e25be833, 2022-02-05)"
   sodipodi:docname="americas.svg"
   xmlns:inkscape="http://www.inkscape.org/namespaces/inkscape"
   xmlns:sodipodi="http://sodipodi.sourceforge.net/DTD/sodipodi-0.dtd"
   xmlns="http://www.w3.org/2000/svg"
   xmlns:svg="http://www.w3.org/2000/svg">
  <sodipodi:namedview
     id="namedview2367"
     pagecolor="#ffffff"
     bordercolor="#666666"
     borderopacity="1.0"
     inkscape:pageshadow="2"
     inkscape:pageopacity="0.0"
     inkscape:pagecheckerboard="0"
     inkscape:document-units="mm"
     showgrid="false"
     fit-margin-top="0"
     fit-margin-left="0"
     fit-margin-right="0"
     fit-margin-bottom="0"
     inkscape:zoom="1.332716"
     inkscape:cx="214.59935"
     inkscape:cy="231.10699"
     inkscape:window-width="1920"
     inkscape:window-height="986"
     inkscape:window-x="-11"
     inkscape:window-y="-11"
     inkscape:window-maximized="1"
     inkscape:current-layer="layer1" />
  <defs
     id="defs2362" />
  <g
     inkscape:label="Capa 1"
     inkscape:groupmode="layer"
     id="layer1"
     transform="translate(-47.366998,-98.934391)">
    <path
       style="fill:#000000;stroke-width:0.176389"
       id="path2481"
       d="" />
    <path
       style="fill:#000000;stroke-width:0.176389"
       id="path2461"
       d="" />
    <path
       style="fill:#ffffff;stroke-width:0.176389;fill-opacity:1"
       d="m 116.74503,214.01013 c -0.91708,-0.33244 -2.25481,-1.4912 -2.62699,-2.27553 -0.50475,-1.06366 -0.75384,-3.44891 -0.42445,-4.06438 0.1819,-0.33988 0.1822,-0.4726 0.002,-0.69024 -0.18214,-0.21946 -0.17071,-0.38094 0.0616,-0.87051 0.15688,-0.33059 0.28523,-0.76616 0.28523,-0.96793 0,-0.24421 0.14743,-0.40386 0.44097,-0.47754 0.53719,-0.13482 0.58794,-0.6016 0.0654,-0.6016 -0.35963,0 -0.37031,-0.0534 -0.2517,-1.25714 0.0681,-0.69143 0.19753,-1.45086 0.28755,-1.68764 0.09,-0.23677 0.1154,-0.7324 0.0564,-1.10139 -0.0844,-0.52778 0.033,-1.02382 0.55008,-2.32522 0.51663,-1.30016 0.68541,-2.01302 0.78842,-3.33 0.0721,-0.92163 0.0991,-1.76122 0.0599,-1.86576 -0.0391,-0.10453 0.0224,-0.42203 0.13674,-0.70555 0.37052,-0.91873 0.98158,-5.90909 0.86845,-7.09238 -0.0926,-0.96884 -0.17551,-1.15736 -0.71565,-1.62795 -0.33599,-0.29272 -0.96807,-0.72508 -1.40463,-0.96081 -2.0871,-1.12693 -2.22968,-1.28645 -3.65088,-4.08483 -1.49936,-2.95227 -1.8331,-3.49477 -2.53698,-4.12383 -0.34812,-0.31111 -0.52706,-0.67837 -0.60764,-1.24713 -0.0994,-0.70149 -0.0552,-0.87633 0.34056,-1.34663 0.3959,-0.47051 0.42072,-0.56875 0.19166,-0.75884 -0.58337,-0.48416 -0.11267,-2.29605 0.85641,-3.29661 1.72961,-1.78581 1.7027,-1.73787 1.7027,-3.03427 0,-0.90721 -0.0812,-1.30902 -0.32851,-1.62571 -0.18069,-0.23137 -0.3822,-0.59209 -0.44781,-0.80161 -0.26589,-0.84914 -1.1076,-0.8331 -1.23332,0.0235 -0.0862,0.58754 -0.53265,0.71907 -1.09804,0.32352 -0.27956,-0.19558 -0.74642,-0.41256 -1.03746,-0.48217 -0.29104,-0.0696 -0.74297,-0.359 -1.00429,-0.64308 -0.26132,-0.28409 -0.62605,-0.51652 -0.81051,-0.51652 -0.42397,0 -0.91923,-0.53683 -0.91923,-0.99638 0,-0.6113 -1.17429,-1.7964 -1.99467,-2.01303 -1.8983,-0.50126 -2.547609,-0.78542 -3.208799,-1.40428 -1.07,-1.0015 -1.37982,-1.11672 -2.34991,-0.87391 -0.76234,0.19081 -0.9391,0.16428 -2.32439,-0.34889 -0.82462,-0.30547 -1.77712,-0.73681 -2.11667,-0.95854 -0.33955,-0.22172 -0.8158,-0.45412 -1.05833,-0.51643 -0.24254,-0.0623 -0.82247,-0.44241 -1.28874,-0.84465 l -0.84777,-0.73135 0.11537,-0.92334 c 0.13874,-1.11049 -0.0993,-1.65739 -1.35482,-3.11315 -0.47156,-0.54675 -0.86265,-1.10238 -0.86909,-1.23473 -0.006,-0.13234 -0.28538,-0.59781 -0.61987,-1.03438 -0.75195,-0.98143 -1.14847,-1.82574 -1.26644,-2.69663 -0.12046,-0.8893 -0.67367,-1.2255 -0.92572,-0.56257 -0.14584,0.3836 -0.0553,0.71131 0.55026,1.99147 0.39865,0.84277 0.84401,1.92919 0.98969,2.41426 0.14567,0.48507 0.41475,1.09264 0.59794,1.35015 0.39271,0.55202 0.41301,0.74517 0.1052,1.00063 -0.30318,0.25162 -1.7124,-1.35554 -1.7124,-1.95293 0,-0.49972 -0.24497,-0.82643 -1.01424,-1.35265 -0.61492,-0.42063 -0.73585,-0.79715 -0.30868,-0.96107 0.37023,-0.14207 0.32968,-0.70457 -0.0773,-1.07291 -0.34658,-0.31365 -0.71642,-1.63656 -0.71642,-2.56262 0,-0.60808 -0.67605,-1.46427 -1.38957,-1.75982 -0.53565,-0.22187 -0.55545,-0.2717 -0.91458,-2.30197 -0.36769,-2.07869 -0.3938,-2.93149 -0.10331,-3.37483 0.15255,-0.23282 0.38985,-0.74213 0.52733,-1.13179 0.13748,-0.38966 0.57539,-1.17304 0.97314,-1.74084 0.7408,-1.05753 1.43616,-2.65504 1.43616,-3.29942 0,-0.19878 -0.25734,-0.71977 -0.57187,-1.15774 l -0.57188,-0.79632 0.46307,-0.37905 c 0.60293,-0.49354 0.72525,-0.93221 0.79428,-2.84849 0.0314,-0.87312 0.1248,-1.96167 0.20745,-2.41899 0.15906,-0.88022 0.0238,-1.19698 -0.51112,-1.19698 -0.36614,0 -0.6083,-0.2947 -0.7583,-0.92283 -0.11158,-0.46723 -0.86693,-1.01745 -1.39678,-1.01745 -0.13531,0 -0.38967,-0.15875 -0.56527,-0.35277 -0.37019,-0.40906 -0.73919,-0.44848 -1.13264,-0.121 -0.40208,0.33467 -2.54378,0.73339 -2.62532,0.48876 -0.0351,-0.10526 -0.18463,-0.19138 -0.33232,-0.19138 -0.33716,0 -1.39522,0.88097 -1.32749,1.1053 0.0855,0.28311 -0.3142,0.63101 -0.97571,0.84933 -0.55222,0.18225 -0.66194,0.16869 -0.86329,-0.10667 -0.24754,-0.33853 -0.14426,-0.3592 -2.97378,0.59494 -0.41647,0.14044 -3.45904,0.72085 -4.21129,0.80337 -0.0849,0.009 -0.1865,-0.0696 -0.22581,-0.17543 -0.0422,-0.11368 0.56202,-0.34975 1.47726,-0.57714 3.31272,-0.82302 5.67108,-1.72458 5.32212,-2.03455 -0.0381,-0.0338 -0.33432,-0.19638 -0.65832,-0.36123 -0.55029,-0.27999 -0.57035,-0.32045 -0.30443,-0.61429 0.42521,-0.46985 0.17621,-0.89974 -0.49167,-0.84885 -0.39462,0.0301 -0.55509,-0.0342 -0.55509,-0.22228 0,-0.1799 0.18013,-0.26458 0.56282,-0.26458 0.39184,0 0.74013,-0.16995 1.14652,-0.55947 0.78173,-0.74926 2.48039,-1.47706 3.66441,-1.57003 1.6585,-0.13023 2.05302,-0.40987 1.06445,-0.75448 -0.64079,-0.22338 -0.69258,-0.6972 -0.13229,-1.21038 0.47147,-0.43183 2.35693,-0.80286 2.82218,-0.55536 0.25315,0.13466 0.40268,0.0124 0.83163,-0.67985 0.7581,-1.22347 0.83374,-1.285 1.57971,-1.285 0.37268,0 1.18314,-0.18907 1.80103,-0.42016 0.61789,-0.23108 1.79392,-0.5093 2.61341,-0.61826 l 1.48997,-0.19811 0.5385,0.51032 c 0.57737,0.54716 1.51695,1.07899 1.90625,1.07899 0.1313,0 0.51202,0.28195 0.84602,0.62655 0.44083,0.45482 0.70414,0.59717 0.96064,0.51934 0.19435,-0.059 1.14712,-0.21122 2.11725,-0.33834 1.41554,-0.18548 1.81615,-0.18742 2.02848,-0.01 0.14552,0.12172 0.54239,0.28012 0.88194,0.35198 0.33955,0.0719 0.84173,0.31882 1.11597,0.5488 0.66105,0.55437 0.77208,0.53181 1.08653,-0.22077 0.35816,-0.85721 0.3523,-1.37187 -0.014,-1.2313 -0.91034,0.34933 -1.12292,0.32466 -1.30388,-0.1513 -0.0985,-0.259 -0.17904,-0.50247 -0.17904,-0.54105 0,-0.0386 0.4596,-0.38225 1.02134,-0.76372 0.56174,-0.38147 1.12708,-0.82099 1.256319,-0.97671 0.45985,-0.55408 2.30845,-0.0991 2.30845,0.56822 0,0.78729 1.22616,1.02328 2.33567,0.44953 0.64381,-0.33293 1.06279,-0.08 0.70198,0.42377 -0.11968,0.1671 -0.35245,0.56509 -0.51727,0.88442 -0.28496,0.55212 -0.28326,0.61103 0.0346,1.20134 l 0.3343,0.62075 -0.51862,0.43359 c -0.3879,0.32431 -0.66311,0.41332 -1.09188,0.35315 -0.3153,-0.0442 -0.57326,-0.008 -0.57326,0.0803 0,0.23475 0.9718,0.69898 1.4632,0.69898 0.5448,0 1.05385,-0.55261 0.89363,-0.97012 -0.14424,-0.37589 0.34072,-0.79376 0.9212,-0.79376 0.35276,0 0.60252,-0.29845 0.60252,-0.71998 0,-0.0891 -0.14625,-0.16196 -0.325,-0.16196 -0.18868,0 -0.46045,-0.2515 -0.64789,-0.59956 l -0.32289,-0.59957 0.5156,-0.45319 c 0.57224,-0.50299 0.54997,-0.4959 1.66212,-0.52895 0.6683,-0.0199 0.79375,-0.0794 0.79375,-0.37637 0,-0.269 -0.136,-0.36589 -0.5727,-0.40801 -0.4427,-0.0427 -0.59802,-0.15618 -0.68432,-0.5 -0.14604,-0.58185 0.20839,-0.92648 1.09285,-1.06266 0.38134,-0.0587 0.79256,-0.18484 0.91382,-0.28027 0.35996,-0.28326 0.25342,-0.65949 -0.18676,-0.65949 -0.63344,0 -1.06854,-0.40025 -0.92539,-0.85128 0.14092,-0.44399 0.65973,-0.5046 0.98318,-0.11487 0.12259,0.14771 0.35922,0.22529 0.52586,0.1724 0.46268,-0.14684 0.76294,0.34439 0.6332,1.03594 -0.12988,0.69234 0.21121,0.95274 0.78148,0.5966 0.55242,-0.34499 0.54935,-0.64105 -0.01,-0.93012 -0.45924,-0.23748 -0.52311,-0.36495 -0.52311,-1.04404 0,-0.64724 0.0886,-0.84811 0.54271,-1.2302 0.29848,-0.25116 0.65567,-0.45665 0.79375,-0.45665 0.13807,0 0.25104,-0.0786 0.25104,-0.17463 0,-0.0961 0.53579,-0.41965 1.19063,-0.71912 1.03807,-0.474719 1.34511,-0.536249 2.39632,-0.480209 0.97836,0.0522 1.26105,0.13567 1.4993,0.442899 0.2589,0.33385 0.38672,0.36113 1.08096,0.23066 0.43305,-0.0814 0.9093,-0.29686 1.05834,-0.478859 0.47068,-0.57474 1.12448,-0.93741 1.68992,-0.93741 0.79971,0 2.17669,0.51435 2.3765,0.8877 0.23421,0.437619 0.78276,0.586429 1.20037,0.325629 0.57408,-0.358529 1.35068,0.0781 1.59614,0.89735 0.13636,0.45514 0.55247,1.00077 1.26933,1.66446 0.58656,0.54305 1.14132,0.98736 1.2328,0.98736 0.0915,0 0.16634,0.11457 0.16634,0.25459 0,0.14002 0.16104,0.36738 0.35787,0.50524 0.93536,0.65515 1.95951,1.78714 2.05674,2.27331 0.0635,0.31744 0.4786,0.89357 1.03622,1.43817 0.51168,0.49971 0.98055,1.10899 1.04196,1.35396 0.15151,0.60447 -0.52143,1.58072 -1.36465,1.97973 -0.45265,0.21418 -0.68307,0.45677 -0.75399,0.79374 -0.1605,0.76278 -0.32957,0.98944 -1.01986,1.36724 -0.75625,0.41391 -0.87482,0.64006 -0.64815,1.23625 0.10623,0.2794 0.10441,0.60425 -0.005,0.89196 -0.11106,0.29212 -0.11153,0.56559 -0.001,0.7715 0.0939,0.17544 0.19311,0.66633 0.22051,1.09088 0.0468,0.72451 0.0202,0.77532 -0.43311,0.82751 -0.26561,0.0306 -0.6603,-0.0686 -0.8771,-0.22048 -0.21672,-0.15185 -0.6364,-0.27609 -0.93253,-0.27609 -0.82847,0 -3.19497,-2.52766 -4.35759,-4.65433 -0.33637,-0.6153 -0.40875,-1.44185 -0.14076,-1.60748 0.097,-0.06 0.17638,-0.26458 0.17638,-0.45473 0,-0.28118 -0.0828,-0.32496 -0.44326,-0.23448 -0.60582,0.15205 -0.96785,-0.19821 -0.96785,-0.93639 0,-0.46393 -0.0855,-0.63463 -0.35277,-0.70453 -0.22228,-0.0581 -0.35278,-0.2406 -0.35278,-0.49325 0,-0.45919 -1.30233,-2.30655 -2.02901,-2.87816 -0.3822,-0.30064 -0.72552,-0.38387 -1.58341,-0.38387 -1.13565,0 -1.67925,-0.29728 -1.67925,-0.91834 0,-0.15025 -0.11906,-0.372 -0.26458,-0.49277 -0.43525,-0.36123 -0.30464,-0.67796 0.43519,-1.05539 0.4787,-0.24422 0.66778,-0.44039 0.59849,-0.62095 -0.0557,-0.14517 -0.17328,-0.26395 -0.26128,-0.26395 -0.31348,0 -1.38543,0.79793 -1.38758,1.03287 -10e-4,0.13152 -0.20062,0.47495 -0.44316,0.7632 -0.24253,0.28823 -0.44097,0.6352 -0.44097,0.77104 0,0.13585 -0.18467,0.36799 -0.41038,0.51588 -0.31222,0.20458 -0.39255,0.39044 -0.33583,0.77694 0.0909,0.61952 -0.14634,0.78946 -1.14951,0.82334 -0.80773,0.0273 -1.02511,0.12977 -0.8559,0.40355 0.0602,0.0974 0.55231,0.13092 1.14,0.0776 1.20743,-0.10949 1.51412,0.0226 1.92591,0.82973 0.16669,0.3267 0.46182,0.67838 0.65585,0.78151 1.00303,0.53313 2.22102,1.3916 2.3704,1.67071 0.093,0.17381 0.12542,0.48317 0.072,0.68746 -0.0759,0.29028 0.0345,0.44102 0.50539,0.68996 1.19811,0.63342 1.90291,1.15214 1.90291,1.40051 0,0.39414 -0.54041,1.1229 -0.83267,1.1229 -0.14462,0 -0.50951,-0.20748 -0.81087,-0.46106 -0.83263,-0.70061 -0.79997,-0.17284 0.0397,0.64207 0.8438,0.81888 0.91918,1.35179 0.28759,2.03328 l -0.43427,0.46859 -0.98218,-0.30893 c -0.62985,-0.19811 -1.23652,-0.55576 -1.69117,-0.99699 -0.64271,-0.62372 -0.78765,-0.68446 -1.55035,-0.64966 -1.20854,0.0551 -1.55497,-0.22851 -0.98058,-0.8029 0.15245,-0.15245 0.54376,-0.27718 0.86957,-0.27718 0.52419,0 0.63722,-0.0898 0.9818,-0.77972 0.38148,-0.76383 0.37168,-1.33695 -0.0229,-1.33695 -0.10914,0 -0.23927,0.15612 -0.28916,0.34694 -0.0499,0.19081 -0.25082,0.39774 -0.44648,0.45985 -0.50089,0.15897 -0.71376,-0.26435 -0.38514,-0.76588 0.52272,-0.79777 -0.52539,-1.87657 -1.24387,-1.28029 -0.13175,0.10935 -0.29359,0.5918 -0.35965,1.07211 -0.13203,0.95997 -0.64171,1.52177 -1.54436,1.7023 -0.27315,0.0546 -0.47324,0.16953 -0.44464,0.25534 0.0286,0.0858 0.44843,0.45563 0.93293,0.82182 1.12581,0.85089 1.15013,1.18017 0.0872,1.18017 -0.43656,0 -0.96934,0.0639 -1.18396,0.14207 -0.61786,0.22494 -1.13754,-0.14369 -0.99624,-0.70667 0.11433,-0.45555 0.10992,-0.45803 -0.30225,-0.16934 -0.23005,0.16113 -0.55753,0.29297 -0.72773,0.29297 -0.17021,0 -0.43453,0.19088 -0.5874,0.42418 -0.15286,0.2333 -0.46445,0.471 -0.69241,0.52821 -0.50796,0.12749 -2.0004,1.75317 -2.14748,2.33919 -0.0667,0.26558 -0.005,0.54073 0.16229,0.72838 0.14817,0.16586 0.29649,0.49707 0.32958,0.73601 0.046,0.33183 0.19901,0.46267 0.64799,0.55396 0.32329,0.0657 0.99798,0.39533 1.4993,0.73244 1.29374,0.86995 1.36237,0.90215 2.14623,1.007 l 0.70555,0.0944 0.0176,0.89082 c 0.0194,0.98445 0.34187,1.79638 0.83059,2.09152 0.65571,0.396 1.06114,-0.84655 0.63842,-1.95662 -0.15713,-0.41264 -0.13763,-0.52636 0.11542,-0.67294 0.71848,-0.41619 1.48478,-1.20979 1.48478,-1.53766 0,-0.19502 -0.17548,-0.66682 -0.38997,-1.04845 -0.34201,-0.60852 -0.36044,-0.74113 -0.14988,-1.07829 0.14754,-0.23626 0.22655,-0.80239 0.20498,-1.46875 -0.028,-0.8635 0.0238,-1.1069 0.254,-1.19525 0.159,-0.061 0.3687,-0.0617 0.466,-0.002 0.0973,0.0601 0.48684,0.10506 0.86564,0.0998 0.4802,-0.007 0.84165,0.11916 1.19376,0.41545 0.27776,0.23372 0.70309,0.50025 0.94518,0.59229 0.32465,0.12344 0.46796,0.33875 0.54615,0.82059 0.12222,0.75314 0.56154,1.31504 1.02816,1.31504 0.18527,0 0.51332,-0.30113 0.76862,-0.70555 0.24497,-0.38806 0.4822,-0.70556 0.52718,-0.70556 0.18002,0 2.03046,2.60744 2.03046,2.86109 0,0.34026 0.95051,1.06995 1.75199,1.34497 0.97367,0.33411 2.05933,1.59658 2.2043,2.56329 0.0672,0.44789 0.0693,0.89982 0.005,1.0043 -0.16913,0.27366 0.61796,1.04578 1.06609,1.04578 0.69126,0 1.60601,1.31475 1.42275,2.0449 -0.12175,0.4851 -0.64259,0.56865 -0.98358,0.15778 -0.16998,-0.20481 -0.27817,-0.21963 -0.46588,-0.0639 -0.1877,0.15578 -0.31591,0.13828 -0.55196,-0.0753 -0.17946,-0.16241 -0.70979,-0.30106 -1.27385,-0.33303 -1.14872,-0.0651 -1.26759,-0.29695 -0.73107,-1.42592 0.68299,-1.4372 0.48743,-1.9048 -0.46238,-1.10559 -0.293,0.24655 -0.68002,0.44948 -0.86005,0.45097 -0.46506,0.004 -0.83509,0.27567 -0.69151,0.50799 0.0671,0.10855 0.007,0.24142 -0.1332,0.29528 -0.31845,0.1222 -1.53108,-0.3693 -1.53108,-0.62058 0,-0.20384 -0.51799,-0.24629 -0.95571,-0.0783 -0.15345,0.0589 -0.27901,0.22755 -0.27901,0.37482 0,0.20089 0.12673,0.24242 0.50743,0.16628 0.29947,-0.0599 0.63999,-0.005 0.83087,0.13501 0.27544,0.20141 0.29246,0.3045 0.11467,0.69471 -0.11483,0.25202 -0.1698,0.55837 -0.12216,0.68078 0.10056,0.2584 0.90341,0.66355 1.31491,0.66355 0.15529,0 0.38293,0.0992 0.50588,0.22049 0.1791,0.17665 0.26888,0.15912 0.4516,-0.0882 0.29916,-0.40492 0.49477,-0.38954 0.77614,0.061 0.30782,0.4929 -0.0482,0.89155 -1.16888,1.30891 -0.45606,0.16985 -1.08904,0.50211 -1.40661,0.73836 -0.77068,0.57333 -1.19443,0.47745 -1.16048,-0.26257 0.0277,-0.60429 -0.26723,-0.75551 -0.62732,-0.32163 -0.11195,0.13489 -0.59583,0.41401 -1.07528,0.62027 -1.06101,0.45643 -1.39727,0.95457 -0.96602,1.4311 0.35037,0.38715 0.21205,0.70199 -0.30842,0.70199 -0.20492,0 -0.49789,0.10871 -0.65105,0.24157 -0.15316,0.13286 -0.5166,0.3179 -0.80764,0.41119 -0.77606,0.24876 -1.99789,2.31869 -2.01553,3.41457 -0.0157,0.9775 -0.18118,1.19763 -1.42405,1.89461 -0.53358,0.29922 -1.38686,0.93045 -1.89618,1.40275 -1.01847,0.94441 -1.15269,1.45281 -0.68138,2.58082 0.27348,0.65452 0.54658,1.99659 0.48874,2.40172 -0.12302,0.86159 -0.23177,1.05833 -0.58503,1.05833 -0.6192,0 -1.55949,-1.51421 -1.55949,-2.51137 0,-0.90156 -0.44906,-1.42223 -1.12342,-1.30258 -0.34786,0.0617 -0.679,0.002 -0.89466,-0.1607 -0.21588,-0.1631 -0.74906,-0.25868 -1.44294,-0.25868 -1.00702,0 -1.10535,0.0337 -1.15692,0.39687 -0.0439,0.30912 -0.18988,0.4096 -0.66018,0.45443 -0.3321,0.0317 -0.76866,-0.0217 -0.97014,-0.11858 -0.92869,-0.44652 -1.786489,-0.39548 -2.857759,0.17005 -1.48228,0.7825 -1.83009,1.14888 -1.83009,1.92777 0,0.35882 -0.16876,1.03388 -0.37501,1.50015 -0.5622,1.27095 -0.52791,2.41834 0.11042,3.695 0.73316,1.46632 1.35148,1.76119 2.92388,1.39437 1.192849,-0.27827 1.750429,-0.64063 1.750429,-1.13758 0,-0.7042 0.57832,-1.08095 1.8112,-1.17991 1.34019,-0.10758 1.63319,0.13294 1.11862,0.91828 -0.15619,0.23837 -0.28428,0.5751 -0.28464,0.74829 -3.5e-4,0.17319 -0.1499,0.55962 -0.33231,0.85875 -0.18241,0.29912 -0.38753,0.87459 -0.45582,1.27882 -0.14082,0.83351 -0.15873,0.82619 1.84712,0.75418 0.72151,-0.0259 1.12128,0.0595 1.55986,0.33317 l 0.58972,0.36799 -0.12537,1.08024 c -0.069,0.59413 -0.19119,1.30972 -0.27163,1.59019 -0.19012,0.6629 -0.0717,0.96645 0.68971,1.76856 0.671,0.70684 1.08741,0.79911 1.79105,0.39687 0.63552,-0.3633 1.33125,-0.32107 2.11184,0.12818 0.68085,0.39185 0.68335,0.39195 1.07353,0.0441 0.2151,-0.19176 0.50144,-0.60944 0.63631,-0.92818 0.24531,-0.57973 0.80582,-0.91978 1.51608,-0.91978 0.20675,0 0.6757,-0.20775 1.0421,-0.46167 0.72473,-0.50224 1.20486,-0.46105 1.20486,0.10336 0,0.49592 0.31905,0.44893 0.56126,-0.0827 0.24292,-0.53316 0.34569,-0.54749 0.63253,-0.0882 0.12117,0.19403 0.3264,0.35278 0.45606,0.35278 0.12966,0 0.37942,0.15875 0.55501,0.35278 0.2042,0.22564 0.54327,0.35277 0.94086,0.35277 0.34187,0 0.88237,0.0943 1.2011,0.20956 0.43856,0.15858 0.67757,0.16029 0.98267,0.007 0.22173,-0.11139 0.86491,-0.24706 1.42928,-0.30148 0.56437,-0.0544 1.21922,-0.22546 1.45521,-0.38009 0.47938,-0.3141 0.50729,-0.24229 0.24967,0.64254 -0.20932,0.71895 0.0307,1.33897 0.58657,1.51541 0.19288,0.0612 0.84981,0.57563 1.45985,1.14315 l 1.10916,1.03186 1.11907,-0.0191 c 1.22322,-0.0208 2.32849,0.37787 3.15866,1.13946 0.71541,0.65631 1.61525,2.67402 1.47577,3.3091 -0.10206,0.46468 -0.0684,0.52198 0.30662,0.52198 0.2317,0 0.57536,0.11654 0.76367,0.25898 0.18832,0.14243 0.5577,0.26149 0.82085,0.26458 0.68888,0.008 2.39023,0.68085 2.65092,1.04827 0.22347,0.31496 0.90451,0.4792 2.88313,0.69533 1.06252,0.11606 1.21301,0.19148 3.05351,1.53022 0.32964,0.23978 0.77633,0.43596 0.99264,0.43596 0.50971,0 0.73253,0.28457 0.93766,1.19755 0.26634,1.18539 -0.045,2.00993 -1.27561,3.37847 -2.18339,2.42808 -2.40048,2.7236 -2.40317,3.27142 -0.004,0.73504 -0.44539,2.53966 -0.77779,3.17715 -0.15167,0.29089 -0.27625,0.61413 -0.27685,0.71832 -5.3e-4,0.10419 -0.2789,0.58018 -0.61845,1.05777 -0.33955,0.47758 -0.61736,0.95838 -0.61736,1.06844 0,0.42223 -1.29557,1.18688 -2.26984,1.33966 -0.53713,0.0842 -1.05975,0.21523 -1.16137,0.29111 -0.10162,0.0759 -0.55675,0.27534 -1.0114,0.44323 -0.9687,0.35774 -2.08378,1.49528 -2.08378,2.12577 0,1.01627 -0.56279,1.79135 -3.56951,4.91595 -1.65304,1.71785 -1.7443,1.78369 -2.4345,1.75616 -0.39439,-0.0157 -0.87171,-0.0777 -1.0607,-0.13765 -0.28119,-0.0892 -0.34362,-0.0247 -0.34362,0.35539 0,0.25545 0.0857,0.6245 0.19034,0.82012 0.15449,0.28866 0.10223,0.4828 -0.27743,1.03065 -0.54452,0.78575 -1.12594,1.06626 -2.52079,1.21617 -1.00448,0.10796 -1.00869,0.11088 -1.17286,0.81391 -0.0906,0.38805 -0.19317,0.74196 -0.2279,0.78646 -0.0347,0.0445 -0.43683,0.12388 -0.89357,0.17639 -0.88787,0.10208 -1.18821,0.57383 -0.43356,0.68101 0.54172,0.0769 0.49819,0.41975 -0.11044,0.86973 -0.27902,0.20629 -0.56322,0.5978 -0.63154,0.87003 -0.16229,0.64661 -0.41597,0.9379 -0.81681,0.9379 -0.69448,0 -0.82965,1.1107 -0.161,1.32292 0.1761,0.0559 0.3642,0.21631 0.41799,0.35649 0.0897,0.2338 -0.70308,1.34116 -1.66603,2.32708 -0.3257,0.33346 -0.36433,0.51386 -0.2644,1.23472 0.18453,1.33131 0.44147,1.80073 1.19645,2.1859 0.80995,0.4132 0.79216,0.72448 -0.0513,0.89705 -0.33159,0.0678 -0.80132,0.16379 -1.04385,0.21322 -0.24254,0.0494 -0.77243,-0.0303 -1.17753,-0.17715 z m -0.58636,-53.78037 c 0,-0.0485 -0.0397,-0.0882 -0.0882,-0.0882 -0.0485,0 -0.0882,0.0397 -0.0882,0.0882 0,0.0485 0.0397,0.0882 0.0882,0.0882 0.0485,0 0.0882,-0.0397 0.0882,-0.0882 z m -5.64444,-49.21779 c 0,-0.29561 -0.1625,-0.51064 -0.52917,-0.70025 -0.40595,-0.20992 -0.52917,-0.39442 -0.52917,-0.7923 0,-0.8612 0.53948,-1.76429 1.23002,-2.05906 l 0.62207,-0.26555 -0.79375,-0.30868 c -0.93699,-0.36439 -1.22955,-0.28792 -0.71884,0.18788 0.20133,0.18757 0.36606,0.37382 0.36606,0.41388 0,0.0401 -0.35742,0.31876 -0.79426,0.61932 l -0.79425,0.54646 0.10708,1.00541 c 0.081,0.76088 0.20986,1.09283 0.52967,1.36482 0.26593,0.22617 0.42466,0.55312 0.42816,0.88194 l 0.006,0.52254 0.4354,-0.49491 c 0.23947,-0.27219 0.4354,-0.68687 0.4354,-0.9215 z m -9.17223,0.53447 c 0,-0.19991 -0.21558,-0.26458 -0.88194,-0.26458 -1.073839,0 -1.175069,0.30609 -0.13229,0.40001 0.41231,0.0371 0.80918,0.0814 0.88194,0.0983 0.0728,0.017 0.13229,-0.0882 0.13229,-0.23377 z m 5.40926,-0.0294 c -0.0647,-0.0647 -0.17051,-0.0647 -0.23518,0 -0.0647,0.0647 -0.0118,0.1176 0.11759,0.1176 0.12935,0 0.18227,-0.0529 0.11759,-0.1176 z m 3.05741,-5.85803 c 0,-0.0851 -0.12243,-0.2564 -0.27206,-0.38058 -0.21151,-0.17554 -0.31914,-0.17871 -0.48359,-0.0143 -0.16446,0.16445 -0.15298,0.24855 0.0516,0.37788 0.33262,0.21029 0.70408,0.21924 0.70408,0.017 z m 2.19323,-0.003 c 0.0536,-0.0867 -0.10987,-0.2096 -0.36318,-0.27317 -0.51038,-0.1281 -0.69088,-0.043 -0.51439,0.24262 0.14109,0.22829 0.74242,0.24922 0.87757,0.0305 z m 10.15399,105.5852 c 0,-0.42231 0.41709,-0.65264 1.18181,-0.65264 0.62659,0 0.75847,0.0581 0.75847,0.33391 0,0.40305 -0.33046,0.54804 -1.24915,0.54804 -0.44949,0 -0.69113,-0.0802 -0.69113,-0.22931 z m 1.94028,-52.98016 c 0,-0.10561 0.11149,-0.508 0.24775,-0.89421 0.22391,-0.63464 0.21543,-0.77439 -0.0882,-1.45255 -0.18476,-0.41269 -0.33594,-0.85413 -0.33594,-0.98096 0,-0.12684 -0.21828,-0.40246 -0.48507,-0.6125 -0.26679,-0.21004 -0.3487,-0.33919 -0.18204,-0.287 0.16667,0.0522 0.34995,0.019 0.40729,-0.0738 0.19334,-0.31283 0.43621,-0.17173 0.43621,0.25341 0,0.23216 0.11906,0.46779 0.26458,0.52363 0.15307,0.0587 0.26459,0.3225 0.26459,0.62582 0,0.28837 0.0679,0.56626 0.15089,0.61755 0.2264,0.13993 -0.0998,1.89232 -0.40995,2.2025 -0.14856,0.14856 -0.27011,0.1837 -0.27011,0.0781 z m -2.71195,-4.43398 c -0.0583,-0.0943 -0.48725,-0.16566 -0.95328,-0.15863 -1.02898,0.0155 -1.38247,-0.1508 -1.08424,-0.51015 0.14153,-0.17053 0.59221,-0.24888 1.43157,-0.24888 1.18831,0 1.22141,0.0119 1.1051,0.39687 -0.15608,0.51661 -0.36623,0.73587 -0.49915,0.52079 z m -10.42226,-0.27354 c -0.42139,-0.30813 -0.20705,-0.64412 0.41091,-0.64412 0.5886,0 1.18272,0.39929 1.00998,0.67879 -0.17127,0.27711 -1.02292,0.25633 -1.42089,-0.0347 z m 4.74328,0.0413 c -0.0712,-0.11518 -0.39196,-0.16026 -0.7749,-0.1089 -0.82388,0.11051 -1.35236,-0.14173 -1.05291,-0.50254 0.11427,-0.13769 0.3598,-0.25034 0.54562,-0.25034 0.26329,0 0.32666,-0.10706 0.28709,-0.48507 -0.0495,-0.47316 -0.027,-0.48588 0.91936,-0.51791 0.99684,-0.0337 2.22403,0.37343 2.85988,0.94886 0.56768,0.51375 0.38236,0.71185 -0.65192,0.6969 -0.54314,-0.008 -1.06118,0.0802 -1.18181,0.20079 -0.26858,0.26859 -0.7895,0.27857 -0.95041,0.0182 z m -4.6561,-1.825 c -0.12393,-0.14933 -0.3225,-0.27151 -0.44126,-0.27151 -0.11876,0 -0.50523,-0.28097 -0.85883,-0.62437 -0.53224,-0.51691 -0.70189,-0.59281 -0.9856,-0.44098 -0.41449,0.22183 -1.89498,0.24424 -2.02697,0.0307 -0.0519,-0.084 -0.30262,-0.11293 -0.55711,-0.0643 -0.3731,0.0713 -0.45079,0.0277 -0.40109,-0.22545 0.10987,-0.55953 0.89649,-0.96584 2.17831,-1.12515 1.04835,-0.1303 1.34641,-0.10344 1.97469,0.17791 0.40699,0.18225 0.82095,0.33137 0.91991,0.33137 0.099,0 0.44066,0.22083 0.75933,0.49074 0.31867,0.26991 0.99906,0.68173 1.51198,0.91516 0.62287,0.28347 0.91513,0.51589 0.88003,0.69988 -0.077,0.40391 -2.6301,0.49554 -2.95339,0.106 z m -61.739163,-0.84477 c 0.0039,-0.56673 0.266657,-0.9076 0.600858,-0.77936 0.451411,0.17323 0.536471,0.63566 0.168217,0.91452 -0.484124,0.3666 -0.772146,0.31598 -0.769075,-0.13516 z m 65.261193,-0.0252 c 0,-0.13515 0.12454,-0.29351 0.27675,-0.35191 0.194,-0.0745 0.24081,-0.22512 0.15656,-0.50394 -0.0981,-0.32451 -0.0776,-0.35715 0.11131,-0.17726 0.12732,0.12126 0.40433,0.22048 0.61559,0.22048 0.48013,0 0.90937,0.47042 0.65831,0.72148 -0.11888,0.11888 -0.33717,0.10454 -0.66208,-0.0435 -0.41792,-0.19042 -0.50792,-0.17943 -0.65296,0.0798 -0.203,0.36274 -0.50348,0.3955 -0.50348,0.0549 z m -0.94386,-1.2095 c -0.26465,-0.37334 -0.29585,-0.37857 -0.52603,-0.0882 -0.31338,0.39533 -0.47039,0.39187 -0.47039,-0.0104 0,-0.17548 -0.11423,-0.47314 -0.25384,-0.66145 -0.21421,-0.28894 -0.30924,-0.30859 -0.60868,-0.12583 -0.68312,0.4169 -1.31466,-0.71068 -0.82047,-1.46491 0.32977,-0.50328 0.22956,-0.78012 -0.28239,-0.78012 -0.40297,0 -0.3649,-0.32341 0.0704,-0.59799 0.44895,-0.28319 1.26493,0.0749 1.33789,0.58717 0.0332,0.23268 0.29111,0.65391 0.57327,0.93606 0.28215,0.28215 0.513,0.58627 0.513,0.67582 0,0.0896 0.16735,0.16282 0.3719,0.16282 0.30861,0 0.35306,0.075 0.26122,0.44098 -0.0889,0.35427 -0.0449,0.44097 0.22386,0.44097 0.184,0 0.42876,0.11353 0.54392,0.25228 0.1672,0.20146 0.13835,0.29029 -0.14319,0.44097 -0.46651,0.24967 -0.46576,0.24987 -0.79046,-0.20818 z m -64.335285,-0.0625 c -0.129159,-0.15563 -0.421467,-0.35392 -0.649573,-0.44065 -0.228106,-0.0867 -0.368054,-0.23321 -0.310995,-0.32554 0.140902,-0.22798 1.328596,0.48895 1.328596,0.80199 0,0.31945 -0.07962,0.31171 -0.368028,-0.0358 z m 60.075675,-0.95177 c -0.06,-0.097 0.0147,-0.17639 0.16598,-0.17639 0.15124,0 0.27499,0.0794 0.27499,0.17639 0,0.097 -0.0747,0.17639 -0.16598,0.17639 -0.0913,0 -0.21503,-0.0794 -0.27499,-0.17639 z m -62.000702,-0.44097 c 0,-0.0485 0.03969,-0.0882 0.08819,-0.0882 0.04851,0 0.0882,0.0397 0.0882,0.0882 0,0.0485 -0.03969,0.0882 -0.0882,0.0882 -0.04851,0 -0.08819,-0.0397 -0.08819,-0.0882 z m 62.794452,-1.05833 c 0,-0.0485 0.0397,-0.0882 0.0882,-0.0882 0.0485,0 0.0882,0.0397 0.0882,0.0882 0,0.0485 -0.0397,0.0882 -0.0882,0.0882 -0.0485,0 -0.0882,-0.0397 -0.0882,-0.0882 z M 81.351261,123.68767 c -0.17787,-0.17788 -0.14089,-0.9204 0.065,-1.30512 0.1934,-0.36137 1.05213,-0.48259 1.05213,-0.14852 0,0.10597 -0.15875,0.39449 -0.35278,0.64115 -0.19403,0.24667 -0.35278,0.55685 -0.35278,0.68928 0,0.25515 -0.2152,0.31957 -0.41157,0.12321 z m 30.428179,-6.52507 c 0.0344,-0.17859 0.18051,-0.3247 0.3247,-0.3247 0.37809,0 0.32348,0.51253 -0.0625,0.58687 -0.23573,0.0454 -0.30756,-0.0264 -0.26217,-0.26217 z m -1.58991,-0.33387 c 0.0724,-0.36824 0.60688,-0.73758 0.79507,-0.5494 0.18818,0.18818 -0.18116,0.72268 -0.5494,0.79507 -0.21117,0.0415 -0.28719,-0.0345 -0.24567,-0.24567 z m -6.86892,-10.70974 c -0.24658,-0.26248 -0.35792,-0.53942 -0.28903,-0.71895 0.0824,-0.2148 0.0138,-0.292 -0.25959,-0.292 -0.66306,0 -0.39681,-0.51047 0.50443,-0.96717 0.78306,-0.39681 1.76975,-0.59382 1.76975,-0.35336 0,0.0498 -0.0979,0.24737 -0.21758,0.43899 -0.18397,0.29459 -0.15946,0.40651 0.15868,0.72465 l 0.37626,0.37626 0.20031,-0.37427 c 0.27402,-0.51202 0.68939,-0.46998 0.90282,0.0914 0.23207,0.6104 -0.14377,1.04176 -1.03173,1.18413 -0.35934,0.0576 -0.89182,0.15257 -1.18329,0.21102 -0.41648,0.0835 -0.61581,0.0149 -0.93103,-0.32067 z m 2.52641,-2.23418 c -0.0938,-0.1518 0.93606,-1.06983 1.20017,-1.06983 0.23948,0 0.10236,0.47691 -0.244,0.84868 -0.37765,0.40536 -0.78421,0.49939 -0.95617,0.22115 z"
       id="path2882" />
    <path
       style="fill:#000000;stroke-width:0.176389"
       id="path2574"
       d="" />
  </g>
</svg>
